solid OpenSCAD_Model
  facet normal -0.95694 -0.290285 0
    outer loop
      vertex 0.0494776 0.401256 0
      vertex 0.0124893 0.52319 1.8
      vertex 0.0124893 0.52319 0
    endloop
  endfacet
  facet normal -0.95694 -0.290285 0
    outer loop
      vertex 0.0124893 0.52319 1.8
      vertex 0.0494776 0.401256 0
      vertex 0.0494776 0.401256 1.8
    endloop
  endfacet
  facet normal -0.881924 -0.471391 0
    outer loop
      vertex 0.109544 0.288878 0
      vertex 0.0494776 0.401256 1.8
      vertex 0.0494776 0.401256 0
    endloop
  endfacet
  facet normal -0.881924 -0.471391 0
    outer loop
      vertex 0.0494776 0.401256 1.8
      vertex 0.109544 0.288878 0
      vertex 0.109544 0.288878 1.8
    endloop
  endfacet
  facet normal -0.995185 -0.0980141 0
    outer loop
      vertex 0.0124893 0.52319 0
      vertex 0 0.65 1.8
      vertex 0 0.65 0
    endloop
  endfacet
  facet normal -0.995185 -0.0980141 0
    outer loop
      vertex 0 0.65 1.8
      vertex 0.0124893 0.52319 0
      vertex 0.0124893 0.52319 1.8
    endloop
  endfacet
  facet normal 0 -1 0
    outer loop
      vertex 0.65 0 0
      vertex 10.35 0 1.8
      vertex 0.65 0 1.8
    endloop
  endfacet
  facet normal 0 -1 -0
    outer loop
      vertex 10.35 0 1.8
      vertex 0.65 0 0
      vertex 10.35 0 0
    endloop
  endfacet
  facet normal 0.0980217 -0.995184 0
    outer loop
      vertex 10.35 0 0
      vertex 10.4768 0.0124893 1.8
      vertex 10.35 0 1.8
    endloop
  endfacet
  facet normal 0.0980217 -0.995184 0
    outer loop
      vertex 10.4768 0.0124893 1.8
      vertex 10.35 0 0
      vertex 10.4768 0.0124893 0
    endloop
  endfacet
  facet normal -0 0 1
    outer loop
      vertex 0 1.8 1.8
      vertex 3.45 1.3 1.8
      vertex 3.45 1.8 1.8
    endloop
  endfacet
  facet normal 0 0 1
    outer loop
      vertex 3.45 1.3 1.8
      vertex 0 1.8 1.8
      vertex 0.65 0 1.8
    endloop
  endfacet
  facet normal -0 0 1
    outer loop
      vertex 0 0.65 1.8
      vertex 0.65 0 1.8
      vertex 0 1.8 1.8
    endloop
  endfacet
  facet normal 0 0 1
    outer loop
      vertex 0.65 0 1.8
      vertex 0 0.65 1.8
      vertex 0.52319 0.0124893 1.8
    endloop
  endfacet
  facet normal 0 0 1
    outer loop
      vertex 0.401256 0.0494776 1.8
      vertex 0 0.65 1.8
      vertex 0.288878 0.109544 1.8
    endloop
  endfacet
  facet normal 0 0 1
    outer loop
      vertex 0.288878 0.109544 1.8
      vertex 0 0.65 1.8
      vertex 0.19038 0.19038 1.8
    endloop
  endfacet
  facet normal 0 0 1
    outer loop
      vertex 0.19038 0.19038 1.8
      vertex 0 0.65 1.8
      vertex 0.109544 0.288878 1.8
    endloop
  endfacet
  facet normal 0 0 1
    outer loop
      vertex 0.109544 0.288878 1.8
      vertex 0 0.65 1.8
      vertex 0.0494776 0.401256 1.8
    endloop
  endfacet
  facet normal 0 0 1
    outer loop
      vertex 0.52319 0.0124893 1.8
      vertex 0 0.65 1.8
      vertex 0.401256 0.0494776 1.8
    endloop
  endfacet
  facet normal 0 0 1
    outer loop
      vertex 0.0494776 0.401256 1.8
      vertex 0 0.65 1.8
      vertex 0.0124893 0.52319 1.8
    endloop
  endfacet
  facet normal -0 0 1
    outer loop
      vertex 9.75 1.3 1.8
      vertex 11 0.65 1.8
      vertex 11 1.8 1.8
    endloop
  endfacet
  facet normal -0 0 1
    outer loop
      vertex 9.72336 1.16606 1.8
      vertex 11 0.65 1.8
      vertex 9.74327 1.23172 1.8
    endloop
  endfacet
  facet normal -0 0 1
    outer loop
      vertex 9.69101 1.10555 1.8
      vertex 11 0.65 1.8
      vertex 9.72336 1.16606 1.8
    endloop
  endfacet
  facet normal 0 -0 1
    outer loop
      vertex 10.35 0 1.8
      vertex 11 0.65 1.8
      vertex 9.69101 1.10555 1.8
    endloop
  endfacet
  facet normal 0 0 1
    outer loop
      vertex 11 0.65 1.8
      vertex 10.35 0 1.8
      vertex 10.9875 0.52319 1.8
    endloop
  endfacet
  facet normal 0 0 1
    outer loop
      vertex 10.9875 0.52319 1.8
      vertex 10.35 0 1.8
      vertex 10.9505 0.401256 1.8
    endloop
  endfacet
  facet normal 0 0 1
    outer loop
      vertex 10.9505 0.401256 1.8
      vertex 10.35 0 1.8
      vertex 10.8905 0.288878 1.8
    endloop
  endfacet
  facet normal 0 0 1
    outer loop
      vertex 10.8905 0.288878 1.8
      vertex 10.35 0 1.8
      vertex 10.8096 0.19038 1.8
    endloop
  endfacet
  facet normal 0 0 1
    outer loop
      vertex 9.75 1.3 1.8
      vertex 11 1.8 1.8
      vertex 9.75 1.8 1.8
    endloop
  endfacet
  facet normal 0 0 1
    outer loop
      vertex 11 0.65 1.8
      vertex 9.75 1.3 1.8
      vertex 9.74327 1.23172 1.8
    endloop
  endfacet
  facet normal 0 0 1
    outer loop
      vertex 10.8096 0.19038 1.8
      vertex 10.35 0 1.8
      vertex 10.7111 0.109544 1.8
    endloop
  endfacet
  facet normal 0 0 1
    outer loop
      vertex 10.7111 0.109544 1.8
      vertex 10.35 0 1.8
      vertex 10.5987 0.0494776 1.8
    endloop
  endfacet
  facet normal 0 0 1
    outer loop
      vertex 10.5987 0.0494776 1.8
      vertex 10.35 0 1.8
      vertex 10.4768 0.0124893 1.8
    endloop
  endfacet
  facet normal -0 0 1
    outer loop
      vertex 9.64749 1.05251 1.8
      vertex 10.35 0 1.8
      vertex 9.69101 1.10555 1.8
    endloop
  endfacet
  facet normal -0 0 1
    outer loop
      vertex 9.59445 1.00899 1.8
      vertex 10.35 0 1.8
      vertex 9.64749 1.05251 1.8
    endloop
  endfacet
  facet normal -0 0 1
    outer loop
      vertex 9.53394 0.976642 1.8
      vertex 10.35 0 1.8
      vertex 9.59445 1.00899 1.8
    endloop
  endfacet
  facet normal -0 0 1
    outer loop
      vertex 9.46828 0.956725 1.8
      vertex 10.35 0 1.8
      vertex 9.53394 0.976642 1.8
    endloop
  endfacet
  facet normal -0 0 1
    outer loop
      vertex 9.4 0.95 1.8
      vertex 10.35 0 1.8
      vertex 9.46828 0.956725 1.8
    endloop
  endfacet
  facet normal -0 0 1
    outer loop
      vertex 3.8 0.95 1.8
      vertex 10.35 0 1.8
      vertex 9.4 0.95 1.8
    endloop
  endfacet
  facet normal 0 0 1
    outer loop
      vertex 0.65 0 1.8
      vertex 3.8 0.95 1.8
      vertex 3.73172 0.956725 1.8
    endloop
  endfacet
  facet normal 0 0 1
    outer loop
      vertex 3.8 0.95 1.8
      vertex 0.65 0 1.8
      vertex 10.35 0 1.8
    endloop
  endfacet
  facet normal 0 0 1
    outer loop
      vertex 3.66606 0.976642 1.8
      vertex 0.65 0 1.8
      vertex 3.73172 0.956725 1.8
    endloop
  endfacet
  facet normal 0 0 1
    outer loop
      vertex 3.60555 1.00899 1.8
      vertex 0.65 0 1.8
      vertex 3.66606 0.976642 1.8
    endloop
  endfacet
  facet normal 0 0 1
    outer loop
      vertex 3.55251 1.05251 1.8
      vertex 0.65 0 1.8
      vertex 3.60555 1.00899 1.8
    endloop
  endfacet
  facet normal 0 0 1
    outer loop
      vertex 3.50899 1.10555 1.8
      vertex 0.65 0 1.8
      vertex 3.55251 1.05251 1.8
    endloop
  endfacet
  facet normal 0 0 1
    outer loop
      vertex 3.47664 1.16606 1.8
      vertex 0.65 0 1.8
      vertex 3.50899 1.10555 1.8
    endloop
  endfacet
  facet normal 0 0 1
    outer loop
      vertex 3.45673 1.23172 1.8
      vertex 0.65 0 1.8
      vertex 3.47664 1.16606 1.8
    endloop
  endfacet
  facet normal 0 0 1
    outer loop
      vertex 0.65 0 1.8
      vertex 3.45673 1.23172 1.8
      vertex 3.45 1.3 1.8
    endloop
  endfacet
  facet normal 0 0 1
    outer loop
      vertex 10.9505 11.9987 1.8
      vertex 10.997 11.78 1.8
      vertex 10.9875 11.8768 1.8
    endloop
  endfacet
  facet normal 0 0 1
    outer loop
      vertex 10.8905 12.1111 1.8
      vertex 10.997 11.78 1.8
      vertex 10.9505 11.9987 1.8
    endloop
  endfacet
  facet normal 0 0 1
    outer loop
      vertex 10.8096 12.2096 1.8
      vertex 10.997 11.78 1.8
      vertex 10.8905 12.1111 1.8
    endloop
  endfacet
  facet normal 0 0 1
    outer loop
      vertex 10.7111 12.2905 1.8
      vertex 10.997 11.78 1.8
      vertex 10.8096 12.2096 1.8
    endloop
  endfacet
  facet normal 0 0 1
    outer loop
      vertex 10.5987 12.3505 1.8
      vertex 10.997 11.78 1.8
      vertex 10.7111 12.2905 1.8
    endloop
  endfacet
  facet normal 0 0 1
    outer loop
      vertex 10.4768 12.3875 1.8
      vertex 10.997 11.78 1.8
      vertex 10.5987 12.3505 1.8
    endloop
  endfacet
  facet normal 0 0 1
    outer loop
      vertex 10.35 12.4 1.8
      vertex 10.997 11.78 1.8
      vertex 10.4768 12.3875 1.8
    endloop
  endfacet
  facet normal -0 0 1
    outer loop
      vertex 0.65 12.4 1.8
      vertex 10.997 11.78 1.8
      vertex 10.35 12.4 1.8
    endloop
  endfacet
  facet normal 0 0 1
    outer loop
      vertex 0.00295467 11.78 1.8
      vertex 0.65 12.4 1.8
      vertex 0.52319 12.3875 1.8
    endloop
  endfacet
  facet normal 0 0 1
    outer loop
      vertex 0.00295467 11.78 1.8
      vertex 0.52319 12.3875 1.8
      vertex 0.401256 12.3505 1.8
    endloop
  endfacet
  facet normal 0 0 1
    outer loop
      vertex 0.00295467 11.78 1.8
      vertex 0.401256 12.3505 1.8
      vertex 0.288878 12.2905 1.8
    endloop
  endfacet
  facet normal 0 0 1
    outer loop
      vertex 0.00295467 11.78 1.8
      vertex 0.288878 12.2905 1.8
      vertex 0.19038 12.2096 1.8
    endloop
  endfacet
  facet normal 0 0 1
    outer loop
      vertex 0.00295467 11.78 1.8
      vertex 0.19038 12.2096 1.8
      vertex 0.109544 12.1111 1.8
    endloop
  endfacet
  facet normal 0 0 1
    outer loop
      vertex 0.00295467 11.78 1.8
      vertex 0.109544 12.1111 1.8
      vertex 0.0494776 11.9987 1.8
    endloop
  endfacet
  facet normal 0 0 1
    outer loop
      vertex 0.00295467 11.78 1.8
      vertex 0.0494776 11.9987 1.8
      vertex 0.0124893 11.8768 1.8
    endloop
  endfacet
  facet normal 0 0 1
    outer loop
      vertex 0.65 12.4 1.8
      vertex 0.00295467 11.78 1.8
      vertex 10.997 11.78 1.8
    endloop
  endfacet
  facet normal 0 0 1
    outer loop
      vertex 2.05 10.83 1.8
      vertex 1.5 9.75 1.8
      vertex 2.05 9.75 1.8
    endloop
  endfacet
  facet normal 0 0 1
    outer loop
      vertex 2.05 10.83 1.8
      vertex 1.43172 9.74327 1.8
      vertex 1.5 9.75 1.8
    endloop
  endfacet
  facet normal 0 0 1
    outer loop
      vertex 2.05 10.83 1.8
      vertex 1.36606 9.72336 1.8
      vertex 1.43172 9.74327 1.8
    endloop
  endfacet
  facet normal -0 0 1
    outer loop
      vertex 0 10.83 1.8
      vertex 1.36606 9.72336 1.8
      vertex 2.05 10.83 1.8
    endloop
  endfacet
  facet normal 0 0 1
    outer loop
      vertex 1.36606 9.72336 1.8
      vertex 0 10.83 1.8
      vertex 1.30555 9.69101 1.8
    endloop
  endfacet
  facet normal 0 0 1
    outer loop
      vertex 1.30555 9.69101 1.8
      vertex 0 10.83 1.8
      vertex 1.25251 9.64749 1.8
    endloop
  endfacet
  facet normal 0 0 1
    outer loop
      vertex 1.15 9.4 1.8
      vertex 0 10.83 1.8
      vertex 1.15 5.35 1.8
    endloop
  endfacet
  facet normal 0 0 1
    outer loop
      vertex 1.15672 9.46828 1.8
      vertex 0 10.83 1.8
      vertex 1.15 9.4 1.8
    endloop
  endfacet
  facet normal 0 0 1
    outer loop
      vertex 1.17664 9.53394 1.8
      vertex 0 10.83 1.8
      vertex 1.15672 9.46828 1.8
    endloop
  endfacet
  facet normal 0 0 1
    outer loop
      vertex 1.20899 9.59445 1.8
      vertex 0 10.83 1.8
      vertex 1.17664 9.53394 1.8
    endloop
  endfacet
  facet normal 0 0 1
    outer loop
      vertex 1.25251 9.64749 1.8
      vertex 0 10.83 1.8
      vertex 1.20899 9.59445 1.8
    endloop
  endfacet
  facet normal -0 0 1
    outer loop
      vertex 1.5 5 1.8
      vertex 2.05 2.65 1.8
      vertex 2.05 5 1.8
    endloop
  endfacet
  facet normal 0 0 1
    outer loop
      vertex 1.43172 5.00672 1.8
      vertex 2.05 2.65 1.8
      vertex 1.5 5 1.8
    endloop
  endfacet
  facet normal 0 0 1
    outer loop
      vertex 0 2.65 1.8
      vertex 1.43172 5.00672 1.8
      vertex 1.36606 5.02664 1.8
    endloop
  endfacet
  facet normal 0 0 1
    outer loop
      vertex 0 2.65 1.8
      vertex 1.36606 5.02664 1.8
      vertex 1.30555 5.05898 1.8
    endloop
  endfacet
  facet normal 0 0 1
    outer loop
      vertex 0 2.65 1.8
      vertex 1.30555 5.05898 1.8
      vertex 1.25251 5.10251 1.8
    endloop
  endfacet
  facet normal 0 0 1
    outer loop
      vertex 0 2.65 1.8
      vertex 1.25251 5.10251 1.8
      vertex 1.20899 5.15555 1.8
    endloop
  endfacet
  facet normal 0 0 1
    outer loop
      vertex 0 2.65 1.8
      vertex 1.20899 5.15555 1.8
      vertex 1.17664 5.21606 1.8
    endloop
  endfacet
  facet normal 0 0 1
    outer loop
      vertex 0 2.65 1.8
      vertex 1.15 5.35 1.8
      vertex 0 10.83 1.8
    endloop
  endfacet
  facet normal 0 0 1
    outer loop
      vertex 1.43172 5.00672 1.8
      vertex 0 2.65 1.8
      vertex 2.05 2.65 1.8
    endloop
  endfacet
  facet normal 0 0 1
    outer loop
      vertex 1.15672 5.28172 1.8
      vertex 0 2.65 1.8
      vertex 1.17664 5.21606 1.8
    endloop
  endfacet
  facet normal 0 0 1
    outer loop
      vertex 1.15 5.35 1.8
      vertex 0 2.65 1.8
      vertex 1.15672 5.28172 1.8
    endloop
  endfacet
  facet normal 0 0 1
    outer loop
      vertex 11 2.65 1.8
      vertex 9.74327 2.81828 1.8
      vertex 9.75 2.75 1.8
    endloop
  endfacet
  facet normal 0 0 1
    outer loop
      vertex 9.83394 4.32664 1.8
      vertex 9.72336 2.88394 1.8
      vertex 9.74327 2.81828 1.8
    endloop
  endfacet
  facet normal 0 0 1
    outer loop
      vertex 9.53394 3.07336 1.8
      vertex 9.76828 4.30672 1.8
      vertex 9.7 4.3 1.8
    endloop
  endfacet
  facet normal 0 0 1
    outer loop
      vertex 9.83394 4.32664 1.8
      vertex 9.69101 2.94445 1.8
      vertex 9.72336 2.88394 1.8
    endloop
  endfacet
  facet normal 0 0 1
    outer loop
      vertex 9.83394 4.32664 1.8
      vertex 9.64749 2.99749 1.8
      vertex 9.69101 2.94445 1.8
    endloop
  endfacet
  facet normal 0 0 1
    outer loop
      vertex 9.83394 4.32664 1.8
      vertex 9.59445 3.04101 1.8
      vertex 9.64749 2.99749 1.8
    endloop
  endfacet
  facet normal 0 0 1
    outer loop
      vertex 9.76828 4.30672 1.8
      vertex 9.53394 3.07336 1.8
      vertex 9.59445 3.04101 1.8
    endloop
  endfacet
  facet normal 0 0 1
    outer loop
      vertex 9.7 4.3 1.8
      vertex 9.46828 3.09327 1.8
      vertex 9.53394 3.07336 1.8
    endloop
  endfacet
  facet normal 0 0 1
    outer loop
      vertex 9.7 4.3 1.8
      vertex 9.4 3.1 1.8
      vertex 9.46828 3.09327 1.8
    endloop
  endfacet
  facet normal -0 0 1
    outer loop
      vertex 5.6 4.3 1.8
      vertex 9.4 3.1 1.8
      vertex 9.7 4.3 1.8
    endloop
  endfacet
  facet normal -0 0 1
    outer loop
      vertex 5.6 3.7 1.8
      vertex 9.4 3.1 1.8
      vertex 5.6 4.3 1.8
    endloop
  endfacet
  facet normal 0 0 1
    outer loop
      vertex 5.6 3.7 1.8
      vertex 3.8 3.1 1.8
      vertex 9.4 3.1 1.8
    endloop
  endfacet
  facet normal -0 0 1
    outer loop
      vertex 2.75 3.7 1.8
      vertex 3.8 3.1 1.8
      vertex 5.6 3.7 1.8
    endloop
  endfacet
  facet normal 0 0 1
    outer loop
      vertex 3.8 3.1 1.8
      vertex 2.75 3.7 1.8
      vertex 3.73172 3.09327 1.8
    endloop
  endfacet
  facet normal 0 0 1
    outer loop
      vertex 3.73172 3.09327 1.8
      vertex 2.75 3.7 1.8
      vertex 3.66606 3.07336 1.8
    endloop
  endfacet
  facet normal 0 0 1
    outer loop
      vertex 2.75 3.7 1.8
      vertex 3.60555 3.04101 1.8
      vertex 3.66606 3.07336 1.8
    endloop
  endfacet
  facet normal 0 0 1
    outer loop
      vertex 2.75 3.7 1.8
      vertex 3.55251 2.99749 1.8
      vertex 3.60555 3.04101 1.8
    endloop
  endfacet
  facet normal 0 0 1
    outer loop
      vertex 2.75 3.7 1.8
      vertex 3.50899 2.94445 1.8
      vertex 3.55251 2.99749 1.8
    endloop
  endfacet
  facet normal 0 0 1
    outer loop
      vertex 2.75 3.7 1.8
      vertex 3.47664 2.88394 1.8
      vertex 3.50899 2.94445 1.8
    endloop
  endfacet
  facet normal 0 0 1
    outer loop
      vertex 2.75 2.65 1.8
      vertex 3.47664 2.88394 1.8
      vertex 2.75 3.7 1.8
    endloop
  endfacet
  facet normal 0 0 1
    outer loop
      vertex 3.47664 2.88394 1.8
      vertex 2.75 2.65 1.8
      vertex 3.45673 2.81828 1.8
    endloop
  endfacet
  facet normal 0 0 1
    outer loop
      vertex 3.45673 2.81828 1.8
      vertex 2.75 2.65 1.8
      vertex 3.45 2.75 1.8
    endloop
  endfacet
  facet normal 0 0 1
    outer loop
      vertex 3.45 2.75 1.8
      vertex 2.75 2.65 1.8
      vertex 3.45 2.65 1.8
    endloop
  endfacet
  facet normal 0 0 1
    outer loop
      vertex 10.05 4.65 1.8
      vertex 11 10.83 1.8
      vertex 10.05 9.85 1.8
    endloop
  endfacet
  facet normal 0 0 1
    outer loop
      vertex 11 10.83 1.8
      vertex 10.0433 9.91828 1.8
      vertex 10.05 9.85 1.8
    endloop
  endfacet
  facet normal 0 0 1
    outer loop
      vertex 11 10.83 1.8
      vertex 10.0234 9.98394 1.8
      vertex 10.0433 9.91828 1.8
    endloop
  endfacet
  facet normal 0 0 1
    outer loop
      vertex 11 10.83 1.8
      vertex 9.99101 10.0444 1.8
      vertex 10.0234 9.98394 1.8
    endloop
  endfacet
  facet normal 0 0 1
    outer loop
      vertex 11 10.83 1.8
      vertex 9.94749 10.0975 1.8
      vertex 9.99101 10.0444 1.8
    endloop
  endfacet
  facet normal 0 0 1
    outer loop
      vertex 11 10.83 1.8
      vertex 9.89445 10.141 1.8
      vertex 9.94749 10.0975 1.8
    endloop
  endfacet
  facet normal 0 0 1
    outer loop
      vertex 11 10.83 1.8
      vertex 9.83394 10.1734 1.8
      vertex 9.89445 10.141 1.8
    endloop
  endfacet
  facet normal 0 0 1
    outer loop
      vertex 11 10.83 1.8
      vertex 9.76828 10.1933 1.8
      vertex 9.83394 10.1734 1.8
    endloop
  endfacet
  facet normal 0 0 1
    outer loop
      vertex 11 10.83 1.8
      vertex 9.7 10.2 1.8
      vertex 9.76828 10.1933 1.8
    endloop
  endfacet
  facet normal -0 0 1
    outer loop
      vertex 5.6 10.83 1.8
      vertex 9.7 10.2 1.8
      vertex 11 10.83 1.8
    endloop
  endfacet
  facet normal 0 0 1
    outer loop
      vertex 9.7 10.2 1.8
      vertex 5.6 10.83 1.8
      vertex 5.6 10.2 1.8
    endloop
  endfacet
  facet normal 0 0 1
    outer loop
      vertex 11 10.83 1.8
      vertex 10.05 4.65 1.8
      vertex 11 2.65 1.8
    endloop
  endfacet
  facet normal -0 0 1
    outer loop
      vertex 10.0433 4.58172 1.8
      vertex 11 2.65 1.8
      vertex 10.05 4.65 1.8
    endloop
  endfacet
  facet normal -0 0 1
    outer loop
      vertex 10.0234 4.51606 1.8
      vertex 11 2.65 1.8
      vertex 10.0433 4.58172 1.8
    endloop
  endfacet
  facet normal -0 0 1
    outer loop
      vertex 9.99101 4.45555 1.8
      vertex 11 2.65 1.8
      vertex 10.0234 4.51606 1.8
    endloop
  endfacet
  facet normal -0 0 1
    outer loop
      vertex 9.94749 4.40251 1.8
      vertex 11 2.65 1.8
      vertex 9.99101 4.45555 1.8
    endloop
  endfacet
  facet normal -0 0 1
    outer loop
      vertex 9.89445 4.35898 1.8
      vertex 11 2.65 1.8
      vertex 9.94749 4.40251 1.8
    endloop
  endfacet
  facet normal 0 0 1
    outer loop
      vertex 9.74327 2.81828 1.8
      vertex 9.89445 4.35898 1.8
      vertex 9.83394 4.32664 1.8
    endloop
  endfacet
  facet normal 0 0 1
    outer loop
      vertex 9.59445 3.04101 1.8
      vertex 9.83394 4.32664 1.8
      vertex 9.76828 4.30672 1.8
    endloop
  endfacet
  facet normal -0 0 1
    outer loop
      vertex 9.74327 2.81828 1.8
      vertex 11 2.65 1.8
      vertex 9.89445 4.35898 1.8
    endloop
  endfacet
  facet normal 0 0 1
    outer loop
      vertex 11 2.65 1.8
      vertex 9.75 2.75 1.8
      vertex 9.75 2.65 1.8
    endloop
  endfacet
  facet normal 0 0 1
    outer loop
      vertex 4.9 10.83 1.8
      vertex 3.65 9.4 1.8
      vertex 4.9 4.4 1.8
    endloop
  endfacet
  facet normal 0 0 1
    outer loop
      vertex 4.9 10.83 1.8
      vertex 3.64327 9.46828 1.8
      vertex 3.65 9.4 1.8
    endloop
  endfacet
  facet normal 0 0 1
    outer loop
      vertex 4.9 10.83 1.8
      vertex 3.62336 9.53394 1.8
      vertex 3.64327 9.46828 1.8
    endloop
  endfacet
  facet normal 0 0 1
    outer loop
      vertex 4.9 10.83 1.8
      vertex 3.59101 9.59445 1.8
      vertex 3.62336 9.53394 1.8
    endloop
  endfacet
  facet normal 0 0 1
    outer loop
      vertex 4.9 10.83 1.8
      vertex 3.54749 9.64749 1.8
      vertex 3.59101 9.59445 1.8
    endloop
  endfacet
  facet normal 0 0 1
    outer loop
      vertex 4.9 10.83 1.8
      vertex 3.49445 9.69101 1.8
      vertex 3.54749 9.64749 1.8
    endloop
  endfacet
  facet normal 0 0 1
    outer loop
      vertex 4.9 10.83 1.8
      vertex 3.43394 9.72336 1.8
      vertex 3.49445 9.69101 1.8
    endloop
  endfacet
  facet normal -0 0 1
    outer loop
      vertex 2.75 10.83 1.8
      vertex 3.43394 9.72336 1.8
      vertex 4.9 10.83 1.8
    endloop
  endfacet
  facet normal 0 0 1
    outer loop
      vertex 3.43394 9.72336 1.8
      vertex 2.75 10.83 1.8
      vertex 3.36828 9.74327 1.8
    endloop
  endfacet
  facet normal 0 0 1
    outer loop
      vertex 3.36828 9.74327 1.8
      vertex 2.75 10.83 1.8
      vertex 3.3 9.75 1.8
    endloop
  endfacet
  facet normal 0 0 1
    outer loop
      vertex 3.3 9.75 1.8
      vertex 2.75 10.83 1.8
      vertex 2.75 9.75 1.8
    endloop
  endfacet
  facet normal -0 0 1
    outer loop
      vertex 3.65 5.35 1.8
      vertex 4.9 4.4 1.8
      vertex 3.65 9.4 1.8
    endloop
  endfacet
  facet normal -0 0 1
    outer loop
      vertex 3.64327 5.28172 1.8
      vertex 4.9 4.4 1.8
      vertex 3.65 5.35 1.8
    endloop
  endfacet
  facet normal -0 0 1
    outer loop
      vertex 3.62336 5.21606 1.8
      vertex 4.9 4.4 1.8
      vertex 3.64327 5.28172 1.8
    endloop
  endfacet
  facet normal -0 0 1
    outer loop
      vertex 3.59101 5.15555 1.8
      vertex 4.9 4.4 1.8
      vertex 3.62336 5.21606 1.8
    endloop
  endfacet
  facet normal -0 0 1
    outer loop
      vertex 3.54749 5.10251 1.8
      vertex 4.9 4.4 1.8
      vertex 3.59101 5.15555 1.8
    endloop
  endfacet
  facet normal -0 0 1
    outer loop
      vertex 3.49445 5.05898 1.8
      vertex 4.9 4.4 1.8
      vertex 3.54749 5.10251 1.8
    endloop
  endfacet
  facet normal -0 0 1
    outer loop
      vertex 3.43394 5.02664 1.8
      vertex 4.9 4.4 1.8
      vertex 3.49445 5.05898 1.8
    endloop
  endfacet
  facet normal 0 0 1
    outer loop
      vertex 2.75 4.4 1.8
      vertex 3.43394 5.02664 1.8
      vertex 3.36828 5.00672 1.8
    endloop
  endfacet
  facet normal 0 0 1
    outer loop
      vertex 2.75 4.4 1.8
      vertex 3.36828 5.00672 1.8
      vertex 3.3 5 1.8
    endloop
  endfacet
  facet normal 0 0 1
    outer loop
      vertex 2.75 4.4 1.8
      vertex 3.3 5 1.8
      vertex 2.75 5 1.8
    endloop
  endfacet
  facet normal 0 0 1
    outer loop
      vertex 3.43394 5.02664 1.8
      vertex 2.75 4.4 1.8
      vertex 4.9 4.4 1.8
    endloop
  endfacet
  facet normal -0.471391 -0.881924 0
    outer loop
      vertex 0.288878 0.109544 0
      vertex 0.401256 0.0494776 1.8
      vertex 0.288878 0.109544 1.8
    endloop
  endfacet
  facet normal -0.471391 -0.881924 -0
    outer loop
      vertex 0.401256 0.0494776 1.8
      vertex 0.288878 0.109544 0
      vertex 0.401256 0.0494776 0
    endloop
  endfacet
  facet normal 1 0 0
    outer loop
      vertex 11 1.8 1.8
      vertex 11 0.65 1.8
      vertex 11 1.8 1.05
    endloop
  endfacet
  facet normal 1 0 0
    outer loop
      vertex 11 10.83 1.8
      vertex 11 2.65 1.8
      vertex 11 10.83 1.05
    endloop
  endfacet
  facet normal 1 -0 0
    outer loop
      vertex 11 10.83 1.05
      vertex 11 11.75 0
      vertex 11 11.75 1.05
    endloop
  endfacet
  facet normal 1 0 0
    outer loop
      vertex 11 2.65 1.05
      vertex 11 10.83 1.05
      vertex 11 2.65 1.8
    endloop
  endfacet
  facet normal 1 0 0
    outer loop
      vertex 11 10.83 1.05
      vertex 11 2.65 1.05
      vertex 11 11.75 0
    endloop
  endfacet
  facet normal 1 0 0
    outer loop
      vertex 11 0.65 0
      vertex 11 2.65 1.05
      vertex 11 1.8 1.05
    endloop
  endfacet
  facet normal 1 0 0
    outer loop
      vertex 11 2.65 1.05
      vertex 11 0.65 0
      vertex 11 11.75 0
    endloop
  endfacet
  facet normal 1 0 0
    outer loop
      vertex 11 0.65 0
      vertex 11 1.8 1.05
      vertex 11 0.65 1.8
    endloop
  endfacet
  facet normal -1 0 0
    outer loop
      vertex 0 11.75 0
      vertex 0 10.83 1.05
      vertex 0 11.75 1.05
    endloop
  endfacet
  facet normal -1 0 0
    outer loop
      vertex 0 10.83 1.05
      vertex 0 2.65 1.05
      vertex 0 10.83 1.8
    endloop
  endfacet
  facet normal -1 0 0
    outer loop
      vertex 0 11.75 0
      vertex 0 2.65 1.05
      vertex 0 10.83 1.05
    endloop
  endfacet
  facet normal -1 0 0
    outer loop
      vertex 0 0.65 0
      vertex 0 2.65 1.05
      vertex 0 11.75 0
    endloop
  endfacet
  facet normal -1 -0 0
    outer loop
      vertex 0 2.65 1.05
      vertex 0 0.65 0
      vertex 0 1.8 1.05
    endloop
  endfacet
  facet normal -1 0 0
    outer loop
      vertex 0 0.65 1.8
      vertex 0 1.8 1.05
      vertex 0 0.65 0
    endloop
  endfacet
  facet normal -1 0 0
    outer loop
      vertex 0 1.8 1.05
      vertex 0 0.65 1.8
      vertex 0 1.8 1.8
    endloop
  endfacet
  facet normal -1 -0 0
    outer loop
      vertex 0 10.83 1.8
      vertex 0 2.65 1.05
      vertex 0 2.65 1.8
    endloop
  endfacet
  facet normal 0 0 -1
    outer loop
      vertex 10.35 0 0
      vertex 11 0.65 0
      vertex 10.9875 0.52319 0
    endloop
  endfacet
  facet normal 0 0 -1
    outer loop
      vertex 0 0.65 0
      vertex 11 0.65 0
      vertex 10.35 0 0
    endloop
  endfacet
  facet normal 0 0 -1
    outer loop
      vertex 10.35 0 0
      vertex 10.9875 0.52319 0
      vertex 10.9505 0.401256 0
    endloop
  endfacet
  facet normal 0 0 -1
    outer loop
      vertex 11 0.65 0
      vertex 0 0.65 0
      vertex 11 11.75 0
    endloop
  endfacet
  facet normal 0 0 -1
    outer loop
      vertex 10.35 0 0
      vertex 10.9505 0.401256 0
      vertex 10.8905 0.288878 0
    endloop
  endfacet
  facet normal 0 0 -1
    outer loop
      vertex 11 11.75 0
      vertex 10.35 12.4 0
      vertex 10.9875 11.8768 0
    endloop
  endfacet
  facet normal 0 0 -1
    outer loop
      vertex 10.35 0 0
      vertex 10.8905 0.288878 0
      vertex 10.8096 0.19038 0
    endloop
  endfacet
  facet normal 0 0 -1
    outer loop
      vertex 10.9875 11.8768 0
      vertex 10.35 12.4 0
      vertex 10.9505 11.9987 0
    endloop
  endfacet
  facet normal 0 0 -1
    outer loop
      vertex 10.35 0 0
      vertex 10.8096 0.19038 0
      vertex 10.7111 0.109544 0
    endloop
  endfacet
  facet normal 0 0 -1
    outer loop
      vertex 10.9505 11.9987 0
      vertex 10.35 12.4 0
      vertex 10.8905 12.1111 0
    endloop
  endfacet
  facet normal 0 0 -1
    outer loop
      vertex 10.35 0 0
      vertex 10.7111 0.109544 0
      vertex 10.5987 0.0494776 0
    endloop
  endfacet
  facet normal 0 0 -1
    outer loop
      vertex 10.8905 12.1111 0
      vertex 10.35 12.4 0
      vertex 10.8096 12.2096 0
    endloop
  endfacet
  facet normal 0 0 -1
    outer loop
      vertex 10.35 0 0
      vertex 10.5987 0.0494776 0
      vertex 10.4768 0.0124893 0
    endloop
  endfacet
  facet normal 0 0 -1
    outer loop
      vertex 10.8096 12.2096 0
      vertex 10.35 12.4 0
      vertex 10.7111 12.2905 0
    endloop
  endfacet
  facet normal 0 0 -1
    outer loop
      vertex 10.7111 12.2905 0
      vertex 10.35 12.4 0
      vertex 10.5987 12.3505 0
    endloop
  endfacet
  facet normal 0 0 -1
    outer loop
      vertex 10.5987 12.3505 0
      vertex 10.35 12.4 0
      vertex 10.4768 12.3875 0
    endloop
  endfacet
  facet normal 0 0 -1
    outer loop
      vertex 0 0.65 0
      vertex 10.35 0 0
      vertex 0.65 0 0
    endloop
  endfacet
  facet normal 0 0 -1
    outer loop
      vertex 0 11.75 0
      vertex 11 11.75 0
      vertex 0 0.65 0
    endloop
  endfacet
  facet normal 0 0 -1
    outer loop
      vertex 0 0.65 0
      vertex 0.65 0 0
      vertex 0.52319 0.0124893 0
    endloop
  endfacet
  facet normal 0 0 -1
    outer loop
      vertex 11 11.75 0
      vertex 0 11.75 0
      vertex 10.35 12.4 0
    endloop
  endfacet
  facet normal 0 0 -1
    outer loop
      vertex 0 0.65 0
      vertex 0.52319 0.0124893 0
      vertex 0.401256 0.0494776 0
    endloop
  endfacet
  facet normal -0 0 -1
    outer loop
      vertex 10.35 12.4 0
      vertex 0 11.75 0
      vertex 0.65 12.4 0
    endloop
  endfacet
  facet normal 0 0 -1
    outer loop
      vertex 0 0.65 0
      vertex 0.401256 0.0494776 0
      vertex 0.288878 0.109544 0
    endloop
  endfacet
  facet normal 0 0 -1
    outer loop
      vertex 0.65 12.4 0
      vertex 0 11.75 0
      vertex 0.52319 12.3875 0
    endloop
  endfacet
  facet normal 0 0 -1
    outer loop
      vertex 0 0.65 0
      vertex 0.288878 0.109544 0
      vertex 0.19038 0.19038 0
    endloop
  endfacet
  facet normal 0 0 -1
    outer loop
      vertex 0.52319 12.3875 0
      vertex 0 11.75 0
      vertex 0.401256 12.3505 0
    endloop
  endfacet
  facet normal 0 0 -1
    outer loop
      vertex 0 0.65 0
      vertex 0.19038 0.19038 0
      vertex 0.109544 0.288878 0
    endloop
  endfacet
  facet normal 0 0 -1
    outer loop
      vertex 0.401256 12.3505 0
      vertex 0 11.75 0
      vertex 0.288878 12.2905 0
    endloop
  endfacet
  facet normal 0 0 -1
    outer loop
      vertex 0 0.65 0
      vertex 0.109544 0.288878 0
      vertex 0.0494776 0.401256 0
    endloop
  endfacet
  facet normal 0 0 -1
    outer loop
      vertex 0.288878 12.2905 0
      vertex 0 11.75 0
      vertex 0.19038 12.2096 0
    endloop
  endfacet
  facet normal 0 0 -1
    outer loop
      vertex 0 0.65 0
      vertex 0.0494776 0.401256 0
      vertex 0.0124893 0.52319 0
    endloop
  endfacet
  facet normal 0 0 -1
    outer loop
      vertex 0.19038 12.2096 0
      vertex 0 11.75 0
      vertex 0.109544 12.1111 0
    endloop
  endfacet
  facet normal 0 0 -1
    outer loop
      vertex 0.109544 12.1111 0
      vertex 0 11.75 0
      vertex 0.0494776 11.9987 0
    endloop
  endfacet
  facet normal 0 0 -1
    outer loop
      vertex 0.0494776 11.9987 0
      vertex 0 11.75 0
      vertex 0.0124893 11.8768 0
    endloop
  endfacet
  facet normal -0.995184 0.0980239 0
    outer loop
      vertex 0.0124893 11.8768 0
      vertex 0.00295467 11.78 1.05
      vertex 0.0124893 11.8768 1.8
    endloop
  endfacet
  facet normal -0.995184 0.0980217 -2.00651e-07
    outer loop
      vertex 0 11.75 0
      vertex 0.00295467 11.78 1.05
      vertex 0.0124893 11.8768 0
    endloop
  endfacet
  facet normal -0.995185 0.0980148 0
    outer loop
      vertex 0.00295467 11.78 1.05
      vertex 0 11.75 0
      vertex 0 11.75 1.05
    endloop
  endfacet
  facet normal -0.995184 0.0980239 0
    outer loop
      vertex 0.0124893 11.8768 1.8
      vertex 0.00295467 11.78 1.05
      vertex 0.00295467 11.78 1.8
    endloop
  endfacet
  facet normal 0.0981049 0.995176 -0
    outer loop
      vertex 10.4768 12.3875 0
      vertex 10.35 12.4 1.8
      vertex 10.4768 12.3875 1.8
    endloop
  endfacet
  facet normal 0.0981049 0.995176 0
    outer loop
      vertex 10.35 12.4 1.8
      vertex 10.4768 12.3875 0
      vertex 10.35 12.4 0
    endloop
  endfacet
  facet normal 0 1 -0
    outer loop
      vertex 10.35 12.4 0
      vertex 0.65 12.4 1.8
      vertex 10.35 12.4 1.8
    endloop
  endfacet
  facet normal 0 1 0
    outer loop
      vertex 0.65 12.4 1.8
      vertex 10.35 12.4 0
      vertex 0.65 12.4 0
    endloop
  endfacet
  facet normal 0.956892 0.290443 0
    outer loop
      vertex 10.9875 11.8768 1.8
      vertex 10.9505 11.9987 0
      vertex 10.9505 11.9987 1.8
    endloop
  endfacet
  facet normal 0.956892 0.290443 0
    outer loop
      vertex 10.9505 11.9987 0
      vertex 10.9875 11.8768 1.8
      vertex 10.9875 11.8768 0
    endloop
  endfacet
  facet normal 0.995219 0.0976713 -0
    outer loop
      vertex 10.997 11.78 1.05
      vertex 10.9875 11.8768 1.8
      vertex 10.997 11.78 1.8
    endloop
  endfacet
  facet normal 0.995219 0.0976713 0
    outer loop
      vertex 10.9875 11.8768 1.8
      vertex 10.997 11.78 1.05
      vertex 10.9875 11.8768 0
    endloop
  endfacet
  facet normal 0.995037 0.0995037 -0
    outer loop
      vertex 11 11.75 0
      vertex 10.997 11.78 1.05
      vertex 11 11.75 1.05
    endloop
  endfacet
  facet normal 0.995176 0.0981049 4.03632e-05
    outer loop
      vertex 10.997 11.78 1.05
      vertex 11 11.75 0
      vertex 10.9875 11.8768 0
    endloop
  endfacet
  facet normal 0.995177 -0.0980972 0
    outer loop
      vertex 10.9875 0.52319 1.8
      vertex 11 0.65 0
      vertex 11 0.65 1.8
    endloop
  endfacet
  facet normal 0.995177 -0.0980972 0
    outer loop
      vertex 11 0.65 0
      vertex 10.9875 0.52319 1.8
      vertex 10.9875 0.52319 0
    endloop
  endfacet
  facet normal 0.772761 -0.634697 0
    outer loop
      vertex 10.8096 0.19038 1.8
      vertex 10.8905 0.288878 0
      vertex 10.8905 0.288878 1.8
    endloop
  endfacet
  facet normal 0.772761 -0.634697 0
    outer loop
      vertex 10.8905 0.288878 0
      vertex 10.8096 0.19038 1.8
      vertex 10.8096 0.19038 0
    endloop
  endfacet
  facet normal -0.773007 -0.634397 0
    outer loop
      vertex 0.19038 0.19038 0
      vertex 0.109544 0.288878 1.8
      vertex 0.109544 0.288878 0
    endloop
  endfacet
  facet normal -0.773007 -0.634397 0
    outer loop
      vertex 0.109544 0.288878 1.8
      vertex 0.19038 0.19038 0
      vertex 0.19038 0.19038 1.8
    endloop
  endfacet
  facet normal -0.881963 0.47132 0
    outer loop
      vertex 0.0494776 11.9987 0
      vertex 0.109544 12.1111 1.8
      vertex 0.109544 12.1111 0
    endloop
  endfacet
  facet normal -0.881963 0.47132 0
    outer loop
      vertex 0.109544 12.1111 1.8
      vertex 0.0494776 11.9987 0
      vertex 0.0494776 11.9987 1.8
    endloop
  endfacet
  facet normal -0.773014 0.634389 0
    outer loop
      vertex 0.109544 12.1111 0
      vertex 0.19038 12.2096 1.8
      vertex 0.19038 12.2096 0
    endloop
  endfacet
  facet normal -0.773014 0.634389 0
    outer loop
      vertex 0.19038 12.2096 1.8
      vertex 0.109544 12.1111 0
      vertex 0.109544 12.1111 1.8
    endloop
  endfacet
  facet normal -0.956918 0.290359 0
    outer loop
      vertex 0.0124893 11.8768 0
      vertex 0.0494776 11.9987 1.8
      vertex 0.0494776 11.9987 0
    endloop
  endfacet
  facet normal -0.956918 0.290359 0
    outer loop
      vertex 0.0494776 11.9987 1.8
      vertex 0.0124893 11.8768 0
      vertex 0.0124893 11.8768 1.8
    endloop
  endfacet
  facet normal 0.634689 0.772767 -0
    outer loop
      vertex 10.8096 12.2096 0
      vertex 10.7111 12.2905 1.8
      vertex 10.8096 12.2096 1.8
    endloop
  endfacet
  facet normal 0.634689 0.772767 0
    outer loop
      vertex 10.7111 12.2905 1.8
      vertex 10.8096 12.2096 0
      vertex 10.7111 12.2905 0
    endloop
  endfacet
  facet normal 0.882179 0.470914 0
    outer loop
      vertex 10.9505 11.9987 1.8
      vertex 10.8905 12.1111 0
      vertex 10.8905 12.1111 1.8
    endloop
  endfacet
  facet normal 0.882179 0.470914 0
    outer loop
      vertex 10.8905 12.1111 0
      vertex 10.9505 11.9987 1.8
      vertex 10.9505 11.9987 0
    endloop
  endfacet
  facet normal -0.634697 0.772761 0
    outer loop
      vertex 0.288878 12.2905 0
      vertex 0.19038 12.2096 1.8
      vertex 0.288878 12.2905 1.8
    endloop
  endfacet
  facet normal -0.634697 0.772761 0
    outer loop
      vertex 0.19038 12.2096 1.8
      vertex 0.288878 12.2905 0
      vertex 0.19038 12.2096 0
    endloop
  endfacet
  facet normal 0.956915 -0.290369 0
    outer loop
      vertex 10.9505 0.401256 1.8
      vertex 10.9875 0.52319 0
      vertex 10.9875 0.52319 1.8
    endloop
  endfacet
  facet normal 0.956915 -0.290369 0
    outer loop
      vertex 10.9875 0.52319 0
      vertex 10.9505 0.401256 1.8
      vertex 10.9505 0.401256 0
    endloop
  endfacet
  facet normal 0.47132 -0.881963 0
    outer loop
      vertex 10.5987 0.0494776 0
      vertex 10.7111 0.109544 1.8
      vertex 10.5987 0.0494776 1.8
    endloop
  endfacet
  facet normal 0.47132 -0.881963 0
    outer loop
      vertex 10.7111 0.109544 1.8
      vertex 10.5987 0.0494776 0
      vertex 10.7111 0.109544 0
    endloop
  endfacet
  facet normal 0.634389 -0.773014 0
    outer loop
      vertex 10.7111 0.109544 0
      vertex 10.8096 0.19038 1.8
      vertex 10.7111 0.109544 1.8
    endloop
  endfacet
  facet normal 0.634389 -0.773014 0
    outer loop
      vertex 10.8096 0.19038 1.8
      vertex 10.7111 0.109544 0
      vertex 10.8096 0.19038 0
    endloop
  endfacet
  facet normal 0.290443 0.956892 -0
    outer loop
      vertex 10.5987 12.3505 0
      vertex 10.4768 12.3875 1.8
      vertex 10.5987 12.3505 1.8
    endloop
  endfacet
  facet normal 0.290443 0.956892 0
    outer loop
      vertex 10.4768 12.3875 1.8
      vertex 10.5987 12.3505 0
      vertex 10.4768 12.3875 0
    endloop
  endfacet
  facet normal 0.470914 0.882179 -0
    outer loop
      vertex 10.7111 12.2905 0
      vertex 10.5987 12.3505 1.8
      vertex 10.7111 12.2905 1.8
    endloop
  endfacet
  facet normal 0.470914 0.882179 0
    outer loop
      vertex 10.5987 12.3505 1.8
      vertex 10.7111 12.2905 0
      vertex 10.5987 12.3505 0
    endloop
  endfacet
  facet normal 0.772767 0.634689 0
    outer loop
      vertex 10.8905 12.1111 1.8
      vertex 10.8096 12.2096 0
      vertex 10.8096 12.2096 1.8
    endloop
  endfacet
  facet normal 0.772767 0.634689 0
    outer loop
      vertex 10.8096 12.2096 0
      vertex 10.8905 12.1111 1.8
      vertex 10.8905 12.1111 0
    endloop
  endfacet
  facet normal -0.290369 0.956915 0
    outer loop
      vertex 0.52319 12.3875 0
      vertex 0.401256 12.3505 1.8
      vertex 0.52319 12.3875 1.8
    endloop
  endfacet
  facet normal -0.290369 0.956915 0
    outer loop
      vertex 0.401256 12.3505 1.8
      vertex 0.52319 12.3875 0
      vertex 0.401256 12.3505 0
    endloop
  endfacet
  facet normal -0.0980972 0.995177 0
    outer loop
      vertex 0.65 12.4 0
      vertex 0.52319 12.3875 1.8
      vertex 0.65 12.4 1.8
    endloop
  endfacet
  facet normal -0.0980972 0.995177 0
    outer loop
      vertex 0.52319 12.3875 1.8
      vertex 0.65 12.4 0
      vertex 0.52319 12.3875 0
    endloop
  endfacet
  facet normal -0.470986 0.882141 0
    outer loop
      vertex 0.401256 12.3505 0
      vertex 0.288878 12.2905 1.8
      vertex 0.401256 12.3505 1.8
    endloop
  endfacet
  facet normal -0.470986 0.882141 0
    outer loop
      vertex 0.288878 12.2905 1.8
      vertex 0.401256 12.3505 0
      vertex 0.288878 12.2905 0
    endloop
  endfacet
  facet normal 0.882141 -0.470986 0
    outer loop
      vertex 10.8905 0.288878 1.8
      vertex 10.9505 0.401256 0
      vertex 10.9505 0.401256 1.8
    endloop
  endfacet
  facet normal 0.882141 -0.470986 0
    outer loop
      vertex 10.9505 0.401256 0
      vertex 10.8905 0.288878 1.8
      vertex 10.8905 0.288878 0
    endloop
  endfacet
  facet normal 0.290359 -0.956918 0
    outer loop
      vertex 10.4768 0.0124893 0
      vertex 10.5987 0.0494776 1.8
      vertex 10.4768 0.0124893 1.8
    endloop
  endfacet
  facet normal 0.290359 -0.956918 0
    outer loop
      vertex 10.5987 0.0494776 1.8
      vertex 10.4768 0.0124893 0
      vertex 10.5987 0.0494776 0
    endloop
  endfacet
  facet normal -0.0980141 -0.995185 0
    outer loop
      vertex 0.52319 0.0124893 0
      vertex 0.65 0 1.8
      vertex 0.52319 0.0124893 1.8
    endloop
  endfacet
  facet normal -0.0980141 -0.995185 -0
    outer loop
      vertex 0.65 0 1.8
      vertex 0.52319 0.0124893 0
      vertex 0.65 0 0
    endloop
  endfacet
  facet normal -0.290285 -0.95694 0
    outer loop
      vertex 0.401256 0.0494776 0
      vertex 0.52319 0.0124893 1.8
      vertex 0.401256 0.0494776 1.8
    endloop
  endfacet
  facet normal -0.290285 -0.95694 -0
    outer loop
      vertex 0.52319 0.0124893 1.8
      vertex 0.401256 0.0494776 0
      vertex 0.52319 0.0124893 0
    endloop
  endfacet
  facet normal -0.634397 -0.773007 0
    outer loop
      vertex 0.19038 0.19038 0
      vertex 0.288878 0.109544 1.8
      vertex 0.19038 0.19038 1.8
    endloop
  endfacet
  facet normal -0.634397 -0.773007 -0
    outer loop
      vertex 0.288878 0.109544 1.8
      vertex 0.19038 0.19038 0
      vertex 0.288878 0.109544 0
    endloop
  endfacet
  facet normal 0 0 1
    outer loop
      vertex 1.15 9.4 1.05
      vertex 2.05 9.75 1.05
      vertex 1.5 9.75 1.05
    endloop
  endfacet
  facet normal 0 0 1
    outer loop
      vertex 2.05 9.75 1.05
      vertex 1.15 9.4 1.05
      vertex 2.05 5 1.05
    endloop
  endfacet
  facet normal 0 0 1
    outer loop
      vertex 1.15 9.4 1.05
      vertex 1.5 9.75 1.05
      vertex 1.43172 9.74327 1.05
    endloop
  endfacet
  facet normal -0 0 1
    outer loop
      vertex 1.15 5.35 1.05
      vertex 2.05 5 1.05
      vertex 1.15 9.4 1.05
    endloop
  endfacet
  facet normal 0 0 1
    outer loop
      vertex 1.15 9.4 1.05
      vertex 1.43172 9.74327 1.05
      vertex 1.36606 9.72336 1.05
    endloop
  endfacet
  facet normal 0 0 1
    outer loop
      vertex 2.05 5 1.05
      vertex 1.15 5.35 1.05
      vertex 1.5 5 1.05
    endloop
  endfacet
  facet normal 0 0 1
    outer loop
      vertex 1.15 9.4 1.05
      vertex 1.36606 9.72336 1.05
      vertex 1.30555 9.69101 1.05
    endloop
  endfacet
  facet normal 0 0 1
    outer loop
      vertex 1.5 5 1.05
      vertex 1.15 5.35 1.05
      vertex 1.43172 5.00672 1.05
    endloop
  endfacet
  facet normal 0 0 1
    outer loop
      vertex 1.15 9.4 1.05
      vertex 1.30555 9.69101 1.05
      vertex 1.25251 9.64749 1.05
    endloop
  endfacet
  facet normal 0 0 1
    outer loop
      vertex 1.43172 5.00672 1.05
      vertex 1.15 5.35 1.05
      vertex 1.36606 5.02664 1.05
    endloop
  endfacet
  facet normal 0 0 1
    outer loop
      vertex 1.15 9.4 1.05
      vertex 1.25251 9.64749 1.05
      vertex 1.20899 9.59445 1.05
    endloop
  endfacet
  facet normal 0 0 1
    outer loop
      vertex 1.36606 5.02664 1.05
      vertex 1.15 5.35 1.05
      vertex 1.30555 5.05898 1.05
    endloop
  endfacet
  facet normal 0 0 1
    outer loop
      vertex 1.15 9.4 1.05
      vertex 1.20899 9.59445 1.05
      vertex 1.17664 9.53394 1.05
    endloop
  endfacet
  facet normal 0 0 1
    outer loop
      vertex 1.30555 5.05898 1.05
      vertex 1.15 5.35 1.05
      vertex 1.25251 5.10251 1.05
    endloop
  endfacet
  facet normal 0 0 1
    outer loop
      vertex 1.15 9.4 1.05
      vertex 1.17664 9.53394 1.05
      vertex 1.15672 9.46828 1.05
    endloop
  endfacet
  facet normal 0 0 1
    outer loop
      vertex 1.25251 5.10251 1.05
      vertex 1.15 5.35 1.05
      vertex 1.20899 5.15555 1.05
    endloop
  endfacet
  facet normal 0 0 1
    outer loop
      vertex 1.20899 5.15555 1.05
      vertex 1.15 5.35 1.05
      vertex 1.17664 5.21606 1.05
    endloop
  endfacet
  facet normal 0 0 1
    outer loop
      vertex 1.17664 5.21606 1.05
      vertex 1.15 5.35 1.05
      vertex 1.15672 5.28172 1.05
    endloop
  endfacet
  facet normal 0 0 1
    outer loop
      vertex 5.6 10.83 1.05
      vertex 11 11.75 1.05
      vertex 10.997 11.78 1.05
    endloop
  endfacet
  facet normal 0 0 1
    outer loop
      vertex 11 11.75 1.05
      vertex 5.6 10.83 1.05
      vertex 11 10.83 1.05
    endloop
  endfacet
  facet normal -0 0 1
    outer loop
      vertex 4.9 10.83 1.05
      vertex 5.6 10.2 1.05
      vertex 5.6 10.83 1.05
    endloop
  endfacet
  facet normal 0 0 1
    outer loop
      vertex 5.6 10.2 1.05
      vertex 4.9 4.4 1.05
      vertex 5.6 4.3 1.05
    endloop
  endfacet
  facet normal 0 0 1
    outer loop
      vertex 5.6 10.2 1.05
      vertex 4.9 10.83 1.05
      vertex 4.9 4.4 1.05
    endloop
  endfacet
  facet normal -0 0 1
    outer loop
      vertex 0.00295467 11.78 1.05
      vertex 5.6 10.83 1.05
      vertex 10.997 11.78 1.05
    endloop
  endfacet
  facet normal 0 0 1
    outer loop
      vertex 5.6 10.83 1.05
      vertex 0.00295467 11.78 1.05
      vertex 4.9 10.83 1.05
    endloop
  endfacet
  facet normal 0 0 1
    outer loop
      vertex 2.05 9.75 1.05
      vertex 2.75 9.75 1.05
      vertex 2.75 10.83 1.05
    endloop
  endfacet
  facet normal 0 0 1
    outer loop
      vertex 2.75 9.75 1.05
      vertex 2.05 9.75 1.05
      vertex 2.75 5 1.05
    endloop
  endfacet
  facet normal 0 0 1
    outer loop
      vertex 2.05 5 1.05
      vertex 2.75 5 1.05
      vertex 2.05 9.75 1.05
    endloop
  endfacet
  facet normal 0 0 1
    outer loop
      vertex 2.75 4.4 1.05
      vertex 2.05 5 1.05
      vertex 2.75 3.7 1.05
    endloop
  endfacet
  facet normal 0 0 1
    outer loop
      vertex 2.05 9.75 1.05
      vertex 2.75 10.83 1.05
      vertex 2.05 10.83 1.05
    endloop
  endfacet
  facet normal 0 0 1
    outer loop
      vertex 4.9 10.83 1.05
      vertex 0.00295467 11.78 1.05
      vertex 2.75 10.83 1.05
    endloop
  endfacet
  facet normal 0 0 1
    outer loop
      vertex 2.75 10.83 1.05
      vertex 0.00295467 11.78 1.05
      vertex 2.05 10.83 1.05
    endloop
  endfacet
  facet normal -0 0 1
    outer loop
      vertex 0 11.75 1.05
      vertex 2.05 10.83 1.05
      vertex 0.00295467 11.78 1.05
    endloop
  endfacet
  facet normal 0 0 1
    outer loop
      vertex 2.05 10.83 1.05
      vertex 0 11.75 1.05
      vertex 0 10.83 1.05
    endloop
  endfacet
  facet normal 0 0 1
    outer loop
      vertex 9.7 10.2 1.05
      vertex 10.05 9.85 1.05
      vertex 10.0433 9.91828 1.05
    endloop
  endfacet
  facet normal 0 0 1
    outer loop
      vertex 10.05 9.85 1.05
      vertex 5.6 10.2 1.05
      vertex 10.05 4.65 1.05
    endloop
  endfacet
  facet normal 0 0 1
    outer loop
      vertex 9.7 10.2 1.05
      vertex 10.0433 9.91828 1.05
      vertex 10.0234 9.98394 1.05
    endloop
  endfacet
  facet normal 0 0 1
    outer loop
      vertex 10.05 9.85 1.05
      vertex 9.7 10.2 1.05
      vertex 5.6 10.2 1.05
    endloop
  endfacet
  facet normal 0 0 1
    outer loop
      vertex 9.7 10.2 1.05
      vertex 10.0234 9.98394 1.05
      vertex 9.99101 10.0444 1.05
    endloop
  endfacet
  facet normal 0 0 1
    outer loop
      vertex 5.6 4.3 1.05
      vertex 10.05 4.65 1.05
      vertex 5.6 10.2 1.05
    endloop
  endfacet
  facet normal 0 0 1
    outer loop
      vertex 9.7 10.2 1.05
      vertex 9.99101 10.0444 1.05
      vertex 9.94749 10.0975 1.05
    endloop
  endfacet
  facet normal 0 0 1
    outer loop
      vertex 10.0433 4.58172 1.05
      vertex 9.7 4.3 1.05
      vertex 10.0234 4.51606 1.05
    endloop
  endfacet
  facet normal 0 0 1
    outer loop
      vertex 9.7 10.2 1.05
      vertex 9.94749 10.0975 1.05
      vertex 9.89445 10.141 1.05
    endloop
  endfacet
  facet normal 0 0 1
    outer loop
      vertex 10.0234 4.51606 1.05
      vertex 9.7 4.3 1.05
      vertex 9.99101 4.45555 1.05
    endloop
  endfacet
  facet normal 0 0 1
    outer loop
      vertex 9.7 10.2 1.05
      vertex 9.89445 10.141 1.05
      vertex 9.83394 10.1734 1.05
    endloop
  endfacet
  facet normal 0 0 1
    outer loop
      vertex 9.99101 4.45555 1.05
      vertex 9.7 4.3 1.05
      vertex 9.94749 4.40251 1.05
    endloop
  endfacet
  facet normal 0 0 1
    outer loop
      vertex 9.7 10.2 1.05
      vertex 9.83394 10.1734 1.05
      vertex 9.76828 10.1933 1.05
    endloop
  endfacet
  facet normal 0 0 1
    outer loop
      vertex 9.94749 4.40251 1.05
      vertex 9.7 4.3 1.05
      vertex 9.89445 4.35898 1.05
    endloop
  endfacet
  facet normal 0 0 1
    outer loop
      vertex 9.89445 4.35898 1.05
      vertex 9.7 4.3 1.05
      vertex 9.83394 4.32664 1.05
    endloop
  endfacet
  facet normal 0 0 1
    outer loop
      vertex 9.83394 4.32664 1.05
      vertex 9.7 4.3 1.05
      vertex 9.76828 4.30672 1.05
    endloop
  endfacet
  facet normal 0 -0 1
    outer loop
      vertex 9.7 4.3 1.05
      vertex 10.05 4.65 1.05
      vertex 5.6 4.3 1.05
    endloop
  endfacet
  facet normal 0 0 1
    outer loop
      vertex 10.05 4.65 1.05
      vertex 9.7 4.3 1.05
      vertex 10.0433 4.58172 1.05
    endloop
  endfacet
  facet normal 0 0 1
    outer loop
      vertex 5.6 4.3 1.05
      vertex 4.9 4.4 1.05
      vertex 5.6 3.7 1.05
    endloop
  endfacet
  facet normal 0 0 1
    outer loop
      vertex 2.75 3.7 1.05
      vertex 4.9 4.4 1.05
      vertex 2.75 4.4 1.05
    endloop
  endfacet
  facet normal 0 0 1
    outer loop
      vertex 4.9 4.4 1.05
      vertex 2.75 3.7 1.05
      vertex 5.6 3.7 1.05
    endloop
  endfacet
  facet normal 0 0 1
    outer loop
      vertex 3.3 9.75 1.05
      vertex 3.65 9.4 1.05
      vertex 3.64327 9.46828 1.05
    endloop
  endfacet
  facet normal 0 0 1
    outer loop
      vertex 3.65 9.4 1.05
      vertex 2.75 9.75 1.05
      vertex 3.65 5.35 1.05
    endloop
  endfacet
  facet normal 0 0 1
    outer loop
      vertex 3.3 9.75 1.05
      vertex 3.64327 9.46828 1.05
      vertex 3.62336 9.53394 1.05
    endloop
  endfacet
  facet normal 0 0 1
    outer loop
      vertex 2.75 5 1.05
      vertex 3.65 5.35 1.05
      vertex 2.75 9.75 1.05
    endloop
  endfacet
  facet normal 0 0 1
    outer loop
      vertex 3.3 9.75 1.05
      vertex 3.62336 9.53394 1.05
      vertex 3.59101 9.59445 1.05
    endloop
  endfacet
  facet normal 0 -0 1
    outer loop
      vertex 3.3 5 1.05
      vertex 3.65 5.35 1.05
      vertex 2.75 5 1.05
    endloop
  endfacet
  facet normal 0 0 1
    outer loop
      vertex 3.3 9.75 1.05
      vertex 3.59101 9.59445 1.05
      vertex 3.54749 9.64749 1.05
    endloop
  endfacet
  facet normal 0 0 1
    outer loop
      vertex 3.65 5.35 1.05
      vertex 3.3 5 1.05
      vertex 3.64327 5.28172 1.05
    endloop
  endfacet
  facet normal 0 0 1
    outer loop
      vertex 3.3 9.75 1.05
      vertex 3.54749 9.64749 1.05
      vertex 3.49445 9.69101 1.05
    endloop
  endfacet
  facet normal 0 0 1
    outer loop
      vertex 3.64327 5.28172 1.05
      vertex 3.3 5 1.05
      vertex 3.62336 5.21606 1.05
    endloop
  endfacet
  facet normal 0 0 1
    outer loop
      vertex 3.3 9.75 1.05
      vertex 3.49445 9.69101 1.05
      vertex 3.43394 9.72336 1.05
    endloop
  endfacet
  facet normal 0 0 1
    outer loop
      vertex 3.62336 5.21606 1.05
      vertex 3.3 5 1.05
      vertex 3.59101 5.15555 1.05
    endloop
  endfacet
  facet normal 0 0 1
    outer loop
      vertex 3.3 9.75 1.05
      vertex 3.43394 9.72336 1.05
      vertex 3.36828 9.74327 1.05
    endloop
  endfacet
  facet normal 0 0 1
    outer loop
      vertex 3.65 9.4 1.05
      vertex 3.3 9.75 1.05
      vertex 2.75 9.75 1.05
    endloop
  endfacet
  facet normal 0 0 1
    outer loop
      vertex 3.59101 5.15555 1.05
      vertex 3.3 5 1.05
      vertex 3.54749 5.10251 1.05
    endloop
  endfacet
  facet normal 0 0 1
    outer loop
      vertex 3.43394 5.02664 1.05
      vertex 3.3 5 1.05
      vertex 3.36828 5.00672 1.05
    endloop
  endfacet
  facet normal 0 0 1
    outer loop
      vertex 3.54749 5.10251 1.05
      vertex 3.3 5 1.05
      vertex 3.49445 5.05898 1.05
    endloop
  endfacet
  facet normal 0 0 1
    outer loop
      vertex 3.49445 5.05898 1.05
      vertex 3.3 5 1.05
      vertex 3.43394 5.02664 1.05
    endloop
  endfacet
  facet normal -0 0 1
    outer loop
      vertex 2.75 2.65 1.05
      vertex 3.45 1.8 1.05
      vertex 3.45 2.65 1.05
    endloop
  endfacet
  facet normal 0 0 1
    outer loop
      vertex 2.75 5 1.05
      vertex 2.05 5 1.05
      vertex 2.75 4.4 1.05
    endloop
  endfacet
  facet normal 0 0 1
    outer loop
      vertex 2.05 2.65 1.05
      vertex 2.75 3.7 1.05
      vertex 2.05 5 1.05
    endloop
  endfacet
  facet normal 0 0 1
    outer loop
      vertex 2.75 3.7 1.05
      vertex 2.05 2.65 1.05
      vertex 2.75 2.65 1.05
    endloop
  endfacet
  facet normal -0 0 1
    outer loop
      vertex 2.05 2.65 1.05
      vertex 3.45 1.8 1.05
      vertex 2.75 2.65 1.05
    endloop
  endfacet
  facet normal 0 0 1
    outer loop
      vertex 0 1.8 1.05
      vertex 2.05 2.65 1.05
      vertex 0 2.65 1.05
    endloop
  endfacet
  facet normal 0 0 1
    outer loop
      vertex 2.05 2.65 1.05
      vertex 0 1.8 1.05
      vertex 3.45 1.8 1.05
    endloop
  endfacet
  facet normal 0 0 1
    outer loop
      vertex 9.4 3.1 1.05
      vertex 9.75 2.65 1.05
      vertex 9.75 2.75 1.05
    endloop
  endfacet
  facet normal 0 0 1
    outer loop
      vertex 9.75 2.65 1.05
      vertex 9.4 3.1 1.05
      vertex 9.75 1.8 1.05
    endloop
  endfacet
  facet normal 0 0 1
    outer loop
      vertex 9.4 3.1 1.05
      vertex 9.75 2.75 1.05
      vertex 9.74327 2.81828 1.05
    endloop
  endfacet
  facet normal 0 0 1
    outer loop
      vertex 9.4 0.95 1.05
      vertex 9.75 1.8 1.05
      vertex 9.4 3.1 1.05
    endloop
  endfacet
  facet normal 0 0 1
    outer loop
      vertex 9.4 3.1 1.05
      vertex 9.74327 2.81828 1.05
      vertex 9.72336 2.88394 1.05
    endloop
  endfacet
  facet normal 0 0 1
    outer loop
      vertex 9.75 1.8 1.05
      vertex 9.4 0.95 1.05
      vertex 9.75 1.3 1.05
    endloop
  endfacet
  facet normal 0 0 1
    outer loop
      vertex 9.4 3.1 1.05
      vertex 9.72336 2.88394 1.05
      vertex 9.69101 2.94445 1.05
    endloop
  endfacet
  facet normal 0 0 1
    outer loop
      vertex 9.75 1.3 1.05
      vertex 9.4 0.95 1.05
      vertex 9.74327 1.23172 1.05
    endloop
  endfacet
  facet normal 0 0 1
    outer loop
      vertex 9.4 3.1 1.05
      vertex 9.69101 2.94445 1.05
      vertex 9.64749 2.99749 1.05
    endloop
  endfacet
  facet normal 0 0 1
    outer loop
      vertex 9.74327 1.23172 1.05
      vertex 9.4 0.95 1.05
      vertex 9.72336 1.16606 1.05
    endloop
  endfacet
  facet normal 0 0 1
    outer loop
      vertex 9.4 3.1 1.05
      vertex 9.64749 2.99749 1.05
      vertex 9.59445 3.04101 1.05
    endloop
  endfacet
  facet normal 0 0 1
    outer loop
      vertex 9.72336 1.16606 1.05
      vertex 9.4 0.95 1.05
      vertex 9.69101 1.10555 1.05
    endloop
  endfacet
  facet normal 0 0 1
    outer loop
      vertex 9.4 3.1 1.05
      vertex 9.59445 3.04101 1.05
      vertex 9.53394 3.07336 1.05
    endloop
  endfacet
  facet normal 0 0 1
    outer loop
      vertex 9.69101 1.10555 1.05
      vertex 9.4 0.95 1.05
      vertex 9.64749 1.05251 1.05
    endloop
  endfacet
  facet normal 0 0 1
    outer loop
      vertex 9.4 3.1 1.05
      vertex 9.53394 3.07336 1.05
      vertex 9.46828 3.09327 1.05
    endloop
  endfacet
  facet normal 0 0 1
    outer loop
      vertex 9.64749 1.05251 1.05
      vertex 9.4 0.95 1.05
      vertex 9.59445 1.00899 1.05
    endloop
  endfacet
  facet normal 0 0 1
    outer loop
      vertex 9.59445 1.00899 1.05
      vertex 9.4 0.95 1.05
      vertex 9.53394 0.976642 1.05
    endloop
  endfacet
  facet normal 0 0 1
    outer loop
      vertex 9.53394 0.976642 1.05
      vertex 9.4 0.95 1.05
      vertex 9.46828 0.956725 1.05
    endloop
  endfacet
  facet normal -0 0 1
    outer loop
      vertex 3.8 3.1 1.05
      vertex 9.4 0.95 1.05
      vertex 9.4 3.1 1.05
    endloop
  endfacet
  facet normal 0 0 1
    outer loop
      vertex 3.8 3.1 1.05
      vertex 3.8 0.95 1.05
      vertex 9.4 0.95 1.05
    endloop
  endfacet
  facet normal 0 0 1
    outer loop
      vertex 3.45 2.75 1.05
      vertex 3.8 3.1 1.05
      vertex 3.73172 3.09327 1.05
    endloop
  endfacet
  facet normal 0 0 1
    outer loop
      vertex 3.8 3.1 1.05
      vertex 3.45 1.8 1.05
      vertex 3.8 0.95 1.05
    endloop
  endfacet
  facet normal 0 0 1
    outer loop
      vertex 3.45 2.75 1.05
      vertex 3.73172 3.09327 1.05
      vertex 3.66606 3.07336 1.05
    endloop
  endfacet
  facet normal -0 0 1
    outer loop
      vertex 3.45 1.3 1.05
      vertex 3.8 0.95 1.05
      vertex 3.45 1.8 1.05
    endloop
  endfacet
  facet normal 0 0 1
    outer loop
      vertex 3.45 2.75 1.05
      vertex 3.66606 3.07336 1.05
      vertex 3.60555 3.04101 1.05
    endloop
  endfacet
  facet normal 0 0 1
    outer loop
      vertex 3.8 0.95 1.05
      vertex 3.45 1.3 1.05
      vertex 3.73172 0.956725 1.05
    endloop
  endfacet
  facet normal 0 0 1
    outer loop
      vertex 3.45 2.75 1.05
      vertex 3.60555 3.04101 1.05
      vertex 3.55251 2.99749 1.05
    endloop
  endfacet
  facet normal 0 0 1
    outer loop
      vertex 3.73172 0.956725 1.05
      vertex 3.45 1.3 1.05
      vertex 3.66606 0.976642 1.05
    endloop
  endfacet
  facet normal 0 0 1
    outer loop
      vertex 3.45 2.75 1.05
      vertex 3.55251 2.99749 1.05
      vertex 3.50899 2.94445 1.05
    endloop
  endfacet
  facet normal 0 0 1
    outer loop
      vertex 3.66606 0.976642 1.05
      vertex 3.45 1.3 1.05
      vertex 3.60555 1.00899 1.05
    endloop
  endfacet
  facet normal 0 0 1
    outer loop
      vertex 3.45 2.75 1.05
      vertex 3.50899 2.94445 1.05
      vertex 3.47664 2.88394 1.05
    endloop
  endfacet
  facet normal 0 0 1
    outer loop
      vertex 3.60555 1.00899 1.05
      vertex 3.45 1.3 1.05
      vertex 3.55251 1.05251 1.05
    endloop
  endfacet
  facet normal 0 0 1
    outer loop
      vertex 3.45 2.75 1.05
      vertex 3.47664 2.88394 1.05
      vertex 3.45673 2.81828 1.05
    endloop
  endfacet
  facet normal 0 0 1
    outer loop
      vertex 3.55251 1.05251 1.05
      vertex 3.45 1.3 1.05
      vertex 3.50899 1.10555 1.05
    endloop
  endfacet
  facet normal 0 0 1
    outer loop
      vertex 3.8 3.1 1.05
      vertex 3.45 2.75 1.05
      vertex 3.45 2.65 1.05
    endloop
  endfacet
  facet normal 0 0 1
    outer loop
      vertex 3.8 3.1 1.05
      vertex 3.45 2.65 1.05
      vertex 3.45 1.8 1.05
    endloop
  endfacet
  facet normal 0 0 1
    outer loop
      vertex 3.50899 1.10555 1.05
      vertex 3.45 1.3 1.05
      vertex 3.47664 1.16606 1.05
    endloop
  endfacet
  facet normal 0 0 1
    outer loop
      vertex 3.47664 1.16606 1.05
      vertex 3.45 1.3 1.05
      vertex 3.45673 1.23172 1.05
    endloop
  endfacet
  facet normal -0 0 1
    outer loop
      vertex 9.75 2.65 1.05
      vertex 11 1.8 1.05
      vertex 11 2.65 1.05
    endloop
  endfacet
  facet normal 0 0 1
    outer loop
      vertex 11 1.8 1.05
      vertex 9.75 2.65 1.05
      vertex 9.75 1.8 1.05
    endloop
  endfacet
  facet normal 0 1 -0
    outer loop
      vertex 3.45 1.8 1.05
      vertex 0 1.8 1.8
      vertex 3.45 1.8 1.8
    endloop
  endfacet
  facet normal 0 1 0
    outer loop
      vertex 0 1.8 1.8
      vertex 3.45 1.8 1.05
      vertex 0 1.8 1.05
    endloop
  endfacet
  facet normal 0 1 -0
    outer loop
      vertex 11 1.8 1.05
      vertex 9.75 1.8 1.8
      vertex 11 1.8 1.8
    endloop
  endfacet
  facet normal 0 1 0
    outer loop
      vertex 9.75 1.8 1.8
      vertex 11 1.8 1.05
      vertex 9.75 1.8 1.05
    endloop
  endfacet
  facet normal 0 -1 0
    outer loop
      vertex 9.75 2.65 1.05
      vertex 11 2.65 1.8
      vertex 9.75 2.65 1.8
    endloop
  endfacet
  facet normal 0 -1 -0
    outer loop
      vertex 11 2.65 1.8
      vertex 9.75 2.65 1.05
      vertex 11 2.65 1.05
    endloop
  endfacet
  facet normal 0 -1 0
    outer loop
      vertex 0 2.65 1.05
      vertex 2.05 2.65 1.8
      vertex 0 2.65 1.8
    endloop
  endfacet
  facet normal 0 -1 -0
    outer loop
      vertex 2.05 2.65 1.8
      vertex 0 2.65 1.05
      vertex 2.05 2.65 1.05
    endloop
  endfacet
  facet normal 0 -1 0
    outer loop
      vertex 2.75 2.65 1.05
      vertex 3.45 2.65 1.8
      vertex 2.75 2.65 1.8
    endloop
  endfacet
  facet normal 0 -1 -0
    outer loop
      vertex 3.45 2.65 1.8
      vertex 2.75 2.65 1.05
      vertex 3.45 2.65 1.05
    endloop
  endfacet
  facet normal 1 -0 0
    outer loop
      vertex 2.05 2.65 1.8
      vertex 2.05 5 1.05
      vertex 2.05 5 1.8
    endloop
  endfacet
  facet normal 1 0 0
    outer loop
      vertex 2.05 5 1.05
      vertex 2.05 2.65 1.8
      vertex 2.05 2.65 1.05
    endloop
  endfacet
  facet normal 1 -0 0
    outer loop
      vertex 2.05 9.75 1.8
      vertex 2.05 10.83 1.05
      vertex 2.05 10.83 1.8
    endloop
  endfacet
  facet normal 1 0 0
    outer loop
      vertex 2.05 10.83 1.05
      vertex 2.05 9.75 1.8
      vertex 2.05 9.75 1.05
    endloop
  endfacet
  facet normal -1 0 0
    outer loop
      vertex 2.75 2.65 1.05
      vertex 2.75 3.7 1.8
      vertex 2.75 3.7 1.05
    endloop
  endfacet
  facet normal -1 -0 0
    outer loop
      vertex 2.75 3.7 1.8
      vertex 2.75 2.65 1.05
      vertex 2.75 2.65 1.8
    endloop
  endfacet
  facet normal -1 0 0
    outer loop
      vertex 2.75 4.4 1.05
      vertex 2.75 5 1.8
      vertex 2.75 5 1.05
    endloop
  endfacet
  facet normal -1 -0 0
    outer loop
      vertex 2.75 5 1.8
      vertex 2.75 4.4 1.05
      vertex 2.75 4.4 1.8
    endloop
  endfacet
  facet normal -1 0 0
    outer loop
      vertex 2.75 9.75 1.05
      vertex 2.75 10.83 1.8
      vertex 2.75 10.83 1.05
    endloop
  endfacet
  facet normal -1 -0 0
    outer loop
      vertex 2.75 10.83 1.8
      vertex 2.75 9.75 1.05
      vertex 2.75 9.75 1.8
    endloop
  endfacet
  facet normal 0 -1 0
    outer loop
      vertex 0.00295467 11.78 1.05
      vertex 10.997 11.78 1.8
      vertex 0.00295467 11.78 1.8
    endloop
  endfacet
  facet normal 0 -1 -0
    outer loop
      vertex 10.997 11.78 1.8
      vertex 0.00295467 11.78 1.05
      vertex 10.997 11.78 1.05
    endloop
  endfacet
  facet normal 1 -0 0
    outer loop
      vertex 4.9 4.4 1.8
      vertex 4.9 10.83 1.05
      vertex 4.9 10.83 1.8
    endloop
  endfacet
  facet normal 1 0 0
    outer loop
      vertex 4.9 10.83 1.05
      vertex 4.9 4.4 1.8
      vertex 4.9 4.4 1.05
    endloop
  endfacet
  facet normal -1 0 0
    outer loop
      vertex 5.6 3.7 1.05
      vertex 5.6 4.3 1.8
      vertex 5.6 4.3 1.05
    endloop
  endfacet
  facet normal -1 -0 0
    outer loop
      vertex 5.6 4.3 1.8
      vertex 5.6 3.7 1.05
      vertex 5.6 3.7 1.8
    endloop
  endfacet
  facet normal -1 0 0
    outer loop
      vertex 5.6 10.2 1.05
      vertex 5.6 10.83 1.8
      vertex 5.6 10.83 1.05
    endloop
  endfacet
  facet normal -1 -0 0
    outer loop
      vertex 5.6 10.83 1.8
      vertex 5.6 10.2 1.05
      vertex 5.6 10.2 1.8
    endloop
  endfacet
  facet normal 0 1 -0
    outer loop
      vertex 5.6 3.7 1.05
      vertex 2.75 3.7 1.8
      vertex 5.6 3.7 1.8
    endloop
  endfacet
  facet normal 0 1 0
    outer loop
      vertex 2.75 3.7 1.8
      vertex 5.6 3.7 1.05
      vertex 2.75 3.7 1.05
    endloop
  endfacet
  facet normal 0 -1 0
    outer loop
      vertex 2.75 4.4 1.05
      vertex 4.9 4.4 1.8
      vertex 2.75 4.4 1.8
    endloop
  endfacet
  facet normal 0 -1 -0
    outer loop
      vertex 4.9 4.4 1.8
      vertex 2.75 4.4 1.05
      vertex 4.9 4.4 1.05
    endloop
  endfacet
  facet normal 0 1 -0
    outer loop
      vertex 2.05 10.83 1.05
      vertex 0 10.83 1.8
      vertex 2.05 10.83 1.8
    endloop
  endfacet
  facet normal 0 1 0
    outer loop
      vertex 0 10.83 1.8
      vertex 2.05 10.83 1.05
      vertex 0 10.83 1.05
    endloop
  endfacet
  facet normal 0 1 -0
    outer loop
      vertex 11 10.83 1.05
      vertex 5.6 10.83 1.8
      vertex 11 10.83 1.8
    endloop
  endfacet
  facet normal 0 1 0
    outer loop
      vertex 5.6 10.83 1.8
      vertex 11 10.83 1.05
      vertex 5.6 10.83 1.05
    endloop
  endfacet
  facet normal 0 1 -0
    outer loop
      vertex 4.9 10.83 1.05
      vertex 2.75 10.83 1.8
      vertex 4.9 10.83 1.8
    endloop
  endfacet
  facet normal 0 1 0
    outer loop
      vertex 2.75 10.83 1.8
      vertex 4.9 10.83 1.05
      vertex 2.75 10.83 1.05
    endloop
  endfacet
  facet normal 0.956972 0.290181 0
    outer loop
      vertex 3.47664 1.16606 1.8
      vertex 3.45673 1.23172 1.05
      vertex 3.45673 1.23172 1.8
    endloop
  endfacet
  facet normal 0.956972 0.290181 0
    outer loop
      vertex 3.45673 1.23172 1.05
      vertex 3.47664 1.16606 1.8
      vertex 3.47664 1.16606 1.05
    endloop
  endfacet
  facet normal 0.47145 0.881893 -0
    outer loop
      vertex 3.66606 0.976642 1.05
      vertex 3.60555 1.00899 1.8
      vertex 3.66606 0.976642 1.8
    endloop
  endfacet
  facet normal 0.47145 0.881893 0
    outer loop
      vertex 3.60555 1.00899 1.8
      vertex 3.66606 0.976642 1.05
      vertex 3.60555 1.00899 1.05
    endloop
  endfacet
  facet normal 0.634317 0.773073 -0
    outer loop
      vertex 3.60555 1.00899 1.05
      vertex 3.55251 1.05251 1.8
      vertex 3.60555 1.00899 1.8
    endloop
  endfacet
  facet normal 0.634317 0.773073 0
    outer loop
      vertex 3.55251 1.05251 1.8
      vertex 3.60555 1.00899 1.05
      vertex 3.55251 1.05251 1.05
    endloop
  endfacet
  facet normal 0.88188 0.471473 0
    outer loop
      vertex 3.50899 1.10555 1.8
      vertex 3.47664 1.16606 1.05
      vertex 3.47664 1.16606 1.8
    endloop
  endfacet
  facet normal 0.88188 0.471473 0
    outer loop
      vertex 3.47664 1.16606 1.05
      vertex 3.50899 1.10555 1.8
      vertex 3.50899 1.10555 1.05
    endloop
  endfacet
  facet normal -0.773073 -0.634317 0
    outer loop
      vertex 9.69101 2.94445 1.05
      vertex 9.64749 2.99749 1.8
      vertex 9.64749 2.99749 1.05
    endloop
  endfacet
  facet normal -0.773073 -0.634317 0
    outer loop
      vertex 9.64749 2.99749 1.8
      vertex 9.69101 2.94445 1.05
      vertex 9.69101 2.94445 1.8
    endloop
  endfacet
  facet normal 0.773073 0.634317 0
    outer loop
      vertex 3.55251 1.05251 1.8
      vertex 3.50899 1.10555 1.05
      vertex 3.50899 1.10555 1.8
    endloop
  endfacet
  facet normal 0.773073 0.634317 0
    outer loop
      vertex 3.50899 1.10555 1.05
      vertex 3.55251 1.05251 1.8
      vertex 3.55251 1.05251 1.05
    endloop
  endfacet
  facet normal -0.290181 -0.956972 0
    outer loop
      vertex 9.46828 3.09327 1.05
      vertex 9.53394 3.07336 1.8
      vertex 9.46828 3.09327 1.8
    endloop
  endfacet
  facet normal -0.290181 -0.956972 -0
    outer loop
      vertex 9.53394 3.07336 1.8
      vertex 9.46828 3.09327 1.05
      vertex 9.53394 3.07336 1.05
    endloop
  endfacet
  facet normal -0.0980894 -0.995178 0
    outer loop
      vertex 9.4 3.1 1.05
      vertex 9.46828 3.09327 1.8
      vertex 9.4 3.1 1.8
    endloop
  endfacet
  facet normal -0.0980894 -0.995178 -0
    outer loop
      vertex 9.46828 3.09327 1.8
      vertex 9.4 3.1 1.05
      vertex 9.46828 3.09327 1.05
    endloop
  endfacet
  facet normal 0.995178 0.0980894 0
    outer loop
      vertex 3.45673 1.23172 1.8
      vertex 3.45 1.3 1.05
      vertex 3.45 1.3 1.8
    endloop
  endfacet
  facet normal 0.995178 0.0980894 0
    outer loop
      vertex 3.45 1.3 1.05
      vertex 3.45673 1.23172 1.8
      vertex 3.45673 1.23172 1.05
    endloop
  endfacet
  facet normal -0.290275 0.956943 0
    outer loop
      vertex 9.53394 0.976642 1.05
      vertex 9.46828 0.956725 1.8
      vertex 9.53394 0.976642 1.8
    endloop
  endfacet
  facet normal -0.290275 0.956943 0
    outer loop
      vertex 9.46828 0.956725 1.8
      vertex 9.53394 0.976642 1.05
      vertex 9.46828 0.956725 1.05
    endloop
  endfacet
  facet normal 0.956972 -0.290181 0
    outer loop
      vertex 3.45673 2.81828 1.8
      vertex 3.47664 2.88394 1.05
      vertex 3.47664 2.88394 1.8
    endloop
  endfacet
  facet normal 0.956972 -0.290181 0
    outer loop
      vertex 3.47664 2.88394 1.05
      vertex 3.45673 2.81828 1.8
      vertex 3.45673 2.81828 1.05
    endloop
  endfacet
  facet normal 1 -0 0
    outer loop
      vertex 3.45 1.3 1.8
      vertex 3.45 1.8 1.05
      vertex 3.45 1.8 1.8
    endloop
  endfacet
  facet normal 1 0 0
    outer loop
      vertex 3.45 1.8 1.05
      vertex 3.45 1.3 1.8
      vertex 3.45 1.3 1.05
    endloop
  endfacet
  facet normal 1 -0 0
    outer loop
      vertex 3.45 2.65 1.8
      vertex 3.45 2.75 1.05
      vertex 3.45 2.75 1.8
    endloop
  endfacet
  facet normal 1 0 0
    outer loop
      vertex 3.45 2.75 1.05
      vertex 3.45 2.65 1.8
      vertex 3.45 2.65 1.05
    endloop
  endfacet
  facet normal 0.995178 -0.0980894 0
    outer loop
      vertex 3.45 2.75 1.8
      vertex 3.45673 2.81828 1.05
      vertex 3.45673 2.81828 1.8
    endloop
  endfacet
  facet normal 0.995178 -0.0980894 0
    outer loop
      vertex 3.45673 2.81828 1.05
      vertex 3.45 2.75 1.8
      vertex 3.45 2.75 1.05
    endloop
  endfacet
  facet normal 0 -1 0
    outer loop
      vertex 3.8 3.1 1.05
      vertex 9.4 3.1 1.8
      vertex 3.8 3.1 1.8
    endloop
  endfacet
  facet normal 0 -1 -0
    outer loop
      vertex 9.4 3.1 1.8
      vertex 3.8 3.1 1.05
      vertex 9.4 3.1 1.05
    endloop
  endfacet
  facet normal -1 0 0
    outer loop
      vertex 9.75 1.3 1.05
      vertex 9.75 1.8 1.8
      vertex 9.75 1.8 1.05
    endloop
  endfacet
  facet normal -1 -0 0
    outer loop
      vertex 9.75 1.8 1.8
      vertex 9.75 1.3 1.05
      vertex 9.75 1.3 1.8
    endloop
  endfacet
  facet normal -1 0 0
    outer loop
      vertex 9.75 2.65 1.05
      vertex 9.75 2.75 1.8
      vertex 9.75 2.75 1.05
    endloop
  endfacet
  facet normal -1 -0 0
    outer loop
      vertex 9.75 2.75 1.8
      vertex 9.75 2.65 1.05
      vertex 9.75 2.65 1.8
    endloop
  endfacet
  facet normal 0 1 -0
    outer loop
      vertex 9.4 0.95 1.05
      vertex 3.8 0.95 1.8
      vertex 9.4 0.95 1.8
    endloop
  endfacet
  facet normal 0 1 0
    outer loop
      vertex 3.8 0.95 1.8
      vertex 9.4 0.95 1.05
      vertex 3.8 0.95 1.05
    endloop
  endfacet
  facet normal -0.0980172 0.995185 0
    outer loop
      vertex 9.46828 0.956725 1.05
      vertex 9.4 0.95 1.8
      vertex 9.46828 0.956725 1.8
    endloop
  endfacet
  facet normal -0.0980172 0.995185 0
    outer loop
      vertex 9.4 0.95 1.8
      vertex 9.46828 0.956725 1.05
      vertex 9.4 0.95 1.05
    endloop
  endfacet
  facet normal -0.47145 0.881893 0
    outer loop
      vertex 9.59445 1.00899 1.05
      vertex 9.53394 0.976642 1.8
      vertex 9.59445 1.00899 1.8
    endloop
  endfacet
  facet normal -0.47145 0.881893 0
    outer loop
      vertex 9.53394 0.976642 1.8
      vertex 9.59445 1.00899 1.05
      vertex 9.53394 0.976642 1.05
    endloop
  endfacet
  facet normal 0.773073 -0.634317 0
    outer loop
      vertex 3.50899 2.94445 1.8
      vertex 3.55251 2.99749 1.05
      vertex 3.55251 2.99749 1.8
    endloop
  endfacet
  facet normal 0.773073 -0.634317 0
    outer loop
      vertex 3.55251 2.99749 1.05
      vertex 3.50899 2.94445 1.8
      vertex 3.50899 2.94445 1.05
    endloop
  endfacet
  facet normal 0.290181 -0.956972 0
    outer loop
      vertex 3.66606 3.07336 1.05
      vertex 3.73172 3.09327 1.8
      vertex 3.66606 3.07336 1.8
    endloop
  endfacet
  facet normal 0.290181 -0.956972 0
    outer loop
      vertex 3.73172 3.09327 1.8
      vertex 3.66606 3.07336 1.05
      vertex 3.73172 3.09327 1.05
    endloop
  endfacet
  facet normal 0.0980894 -0.995178 0
    outer loop
      vertex 3.73172 3.09327 1.05
      vertex 3.8 3.1 1.8
      vertex 3.73172 3.09327 1.8
    endloop
  endfacet
  facet normal 0.0980894 -0.995178 0
    outer loop
      vertex 3.8 3.1 1.8
      vertex 3.73172 3.09327 1.05
      vertex 3.8 3.1 1.05
    endloop
  endfacet
  facet normal -0.88188 -0.471473 0
    outer loop
      vertex 9.72336 2.88394 1.05
      vertex 9.69101 2.94445 1.8
      vertex 9.69101 2.94445 1.05
    endloop
  endfacet
  facet normal -0.88188 -0.471473 0
    outer loop
      vertex 9.69101 2.94445 1.8
      vertex 9.72336 2.88394 1.05
      vertex 9.72336 2.88394 1.8
    endloop
  endfacet
  facet normal -0.995178 -0.0980894 0
    outer loop
      vertex 9.75 2.75 1.05
      vertex 9.74327 2.81828 1.8
      vertex 9.74327 2.81828 1.05
    endloop
  endfacet
  facet normal -0.995178 -0.0980894 0
    outer loop
      vertex 9.74327 2.81828 1.8
      vertex 9.75 2.75 1.05
      vertex 9.75 2.75 1.8
    endloop
  endfacet
  facet normal -0.634317 0.773073 0
    outer loop
      vertex 9.64749 1.05251 1.05
      vertex 9.59445 1.00899 1.8
      vertex 9.64749 1.05251 1.8
    endloop
  endfacet
  facet normal -0.634317 0.773073 0
    outer loop
      vertex 9.59445 1.00899 1.8
      vertex 9.64749 1.05251 1.05
      vertex 9.59445 1.00899 1.05
    endloop
  endfacet
  facet normal -0.471473 -0.88188 0
    outer loop
      vertex 9.53394 3.07336 1.05
      vertex 9.59445 3.04101 1.8
      vertex 9.53394 3.07336 1.8
    endloop
  endfacet
  facet normal -0.471473 -0.88188 -0
    outer loop
      vertex 9.59445 3.04101 1.8
      vertex 9.53394 3.07336 1.05
      vertex 9.59445 3.04101 1.05
    endloop
  endfacet
  facet normal -0.634317 -0.773073 0
    outer loop
      vertex 9.59445 3.04101 1.05
      vertex 9.64749 2.99749 1.8
      vertex 9.59445 3.04101 1.8
    endloop
  endfacet
  facet normal -0.634317 -0.773073 -0
    outer loop
      vertex 9.64749 2.99749 1.8
      vertex 9.59445 3.04101 1.05
      vertex 9.64749 2.99749 1.05
    endloop
  endfacet
  facet normal 0.88188 -0.471473 0
    outer loop
      vertex 3.47664 2.88394 1.8
      vertex 3.50899 2.94445 1.05
      vertex 3.50899 2.94445 1.8
    endloop
  endfacet
  facet normal 0.88188 -0.471473 0
    outer loop
      vertex 3.50899 2.94445 1.05
      vertex 3.47664 2.88394 1.8
      vertex 3.47664 2.88394 1.05
    endloop
  endfacet
  facet normal 0.634317 -0.773073 0
    outer loop
      vertex 3.55251 2.99749 1.05
      vertex 3.60555 3.04101 1.8
      vertex 3.55251 2.99749 1.8
    endloop
  endfacet
  facet normal 0.634317 -0.773073 0
    outer loop
      vertex 3.60555 3.04101 1.8
      vertex 3.55251 2.99749 1.05
      vertex 3.60555 3.04101 1.05
    endloop
  endfacet
  facet normal 0.471473 -0.88188 0
    outer loop
      vertex 3.60555 3.04101 1.05
      vertex 3.66606 3.07336 1.8
      vertex 3.60555 3.04101 1.8
    endloop
  endfacet
  facet normal 0.471473 -0.88188 0
    outer loop
      vertex 3.66606 3.07336 1.8
      vertex 3.60555 3.04101 1.05
      vertex 3.66606 3.07336 1.05
    endloop
  endfacet
  facet normal -0.956972 -0.290181 0
    outer loop
      vertex 9.74327 2.81828 1.05
      vertex 9.72336 2.88394 1.8
      vertex 9.72336 2.88394 1.05
    endloop
  endfacet
  facet normal -0.956972 -0.290181 0
    outer loop
      vertex 9.72336 2.88394 1.8
      vertex 9.74327 2.81828 1.05
      vertex 9.74327 2.81828 1.8
    endloop
  endfacet
  facet normal 0.290275 0.956943 -0
    outer loop
      vertex 3.73172 0.956725 1.05
      vertex 3.66606 0.976642 1.8
      vertex 3.73172 0.956725 1.8
    endloop
  endfacet
  facet normal 0.290275 0.956943 0
    outer loop
      vertex 3.66606 0.976642 1.8
      vertex 3.73172 0.956725 1.05
      vertex 3.66606 0.976642 1.05
    endloop
  endfacet
  facet normal -0.995178 0.0980894 0
    outer loop
      vertex 9.74327 1.23172 1.05
      vertex 9.75 1.3 1.8
      vertex 9.75 1.3 1.05
    endloop
  endfacet
  facet normal -0.995178 0.0980894 0
    outer loop
      vertex 9.75 1.3 1.8
      vertex 9.74327 1.23172 1.05
      vertex 9.74327 1.23172 1.8
    endloop
  endfacet
  facet normal -0.88188 0.471473 0
    outer loop
      vertex 9.69101 1.10555 1.05
      vertex 9.72336 1.16606 1.8
      vertex 9.72336 1.16606 1.05
    endloop
  endfacet
  facet normal -0.88188 0.471473 0
    outer loop
      vertex 9.72336 1.16606 1.8
      vertex 9.69101 1.10555 1.05
      vertex 9.69101 1.10555 1.8
    endloop
  endfacet
  facet normal -0.773073 0.634317 0
    outer loop
      vertex 9.64749 1.05251 1.05
      vertex 9.69101 1.10555 1.8
      vertex 9.69101 1.10555 1.05
    endloop
  endfacet
  facet normal -0.773073 0.634317 0
    outer loop
      vertex 9.69101 1.10555 1.8
      vertex 9.64749 1.05251 1.05
      vertex 9.64749 1.05251 1.8
    endloop
  endfacet
  facet normal 0.0980172 0.995185 -0
    outer loop
      vertex 3.8 0.95 1.05
      vertex 3.73172 0.956725 1.8
      vertex 3.8 0.95 1.8
    endloop
  endfacet
  facet normal 0.0980172 0.995185 0
    outer loop
      vertex 3.73172 0.956725 1.8
      vertex 3.8 0.95 1.05
      vertex 3.73172 0.956725 1.05
    endloop
  endfacet
  facet normal -0.956972 0.290181 0
    outer loop
      vertex 9.72336 1.16606 1.05
      vertex 9.74327 1.23172 1.8
      vertex 9.74327 1.23172 1.05
    endloop
  endfacet
  facet normal -0.956972 0.290181 0
    outer loop
      vertex 9.74327 1.23172 1.8
      vertex 9.72336 1.16606 1.05
      vertex 9.72336 1.16606 1.8
    endloop
  endfacet
  facet normal 0.47136 0.881941 -0
    outer loop
      vertex 1.36606 5.02664 1.05
      vertex 1.30555 5.05898 1.8
      vertex 1.36606 5.02664 1.8
    endloop
  endfacet
  facet normal 0.47136 0.881941 0
    outer loop
      vertex 1.30555 5.05898 1.8
      vertex 1.36606 5.02664 1.05
      vertex 1.30555 5.05898 1.05
    endloop
  endfacet
  facet normal 0.88188 0.471473 0
    outer loop
      vertex 1.20899 5.15555 1.8
      vertex 1.17664 5.21606 1.05
      vertex 1.17664 5.21606 1.8
    endloop
  endfacet
  facet normal 0.88188 0.471473 0
    outer loop
      vertex 1.17664 5.21606 1.05
      vertex 1.20899 5.15555 1.8
      vertex 1.20899 5.15555 1.05
    endloop
  endfacet
  facet normal 0.773073 0.634317 0
    outer loop
      vertex 1.25251 5.10251 1.8
      vertex 1.20899 5.15555 1.05
      vertex 1.20899 5.15555 1.8
    endloop
  endfacet
  facet normal 0.773073 0.634317 0
    outer loop
      vertex 1.20899 5.15555 1.05
      vertex 1.25251 5.10251 1.8
      vertex 1.25251 5.10251 1.05
    endloop
  endfacet
  facet normal 0.634404 0.773002 -0
    outer loop
      vertex 1.30555 5.05898 1.05
      vertex 1.25251 5.10251 1.8
      vertex 1.30555 5.05898 1.8
    endloop
  endfacet
  facet normal 0.634404 0.773002 0
    outer loop
      vertex 1.25251 5.10251 1.8
      vertex 1.30555 5.05898 1.05
      vertex 1.25251 5.10251 1.05
    endloop
  endfacet
  facet normal 0.88188 -0.471473 0
    outer loop
      vertex 1.17664 9.53394 1.8
      vertex 1.20899 9.59445 1.05
      vertex 1.20899 9.59445 1.8
    endloop
  endfacet
  facet normal 0.88188 -0.471473 0
    outer loop
      vertex 1.20899 9.59445 1.05
      vertex 1.17664 9.53394 1.8
      vertex 1.17664 9.53394 1.05
    endloop
  endfacet
  facet normal 0.995192 0.0979451 0
    outer loop
      vertex 1.15672 5.28172 1.8
      vertex 1.15 5.35 1.05
      vertex 1.15 5.35 1.8
    endloop
  endfacet
  facet normal 0.995192 0.0979451 0
    outer loop
      vertex 1.15 5.35 1.05
      vertex 1.15672 5.28172 1.8
      vertex 1.15672 5.28172 1.05
    endloop
  endfacet
  facet normal 0.0980894 -0.995178 0
    outer loop
      vertex 1.43172 9.74327 1.05
      vertex 1.5 9.75 1.8
      vertex 1.43172 9.74327 1.8
    endloop
  endfacet
  facet normal 0.0980894 -0.995178 0
    outer loop
      vertex 1.5 9.75 1.8
      vertex 1.43172 9.74327 1.05
      vertex 1.5 9.75 1.05
    endloop
  endfacet
  facet normal 0.956931 0.290315 0
    outer loop
      vertex 1.17664 5.21606 1.8
      vertex 1.15672 5.28172 1.05
      vertex 1.15672 5.28172 1.8
    endloop
  endfacet
  facet normal 0.956931 0.290315 0
    outer loop
      vertex 1.15672 5.28172 1.05
      vertex 1.17664 5.21606 1.8
      vertex 1.17664 5.21606 1.05
    endloop
  endfacet
  facet normal 1 -0 0
    outer loop
      vertex 1.15 5.35 1.8
      vertex 1.15 9.4 1.05
      vertex 1.15 9.4 1.8
    endloop
  endfacet
  facet normal 1 0 0
    outer loop
      vertex 1.15 9.4 1.05
      vertex 1.15 5.35 1.8
      vertex 1.15 5.35 1.05
    endloop
  endfacet
  facet normal -0.956972 0.290181 0
    outer loop
      vertex 3.62336 5.21606 1.05
      vertex 3.64327 5.28172 1.8
      vertex 3.64327 5.28172 1.05
    endloop
  endfacet
  facet normal -0.956972 0.290181 0
    outer loop
      vertex 3.64327 5.28172 1.8
      vertex 3.62336 5.21606 1.05
      vertex 3.62336 5.21606 1.8
    endloop
  endfacet
  facet normal -0.634317 -0.773073 0
    outer loop
      vertex 3.49445 9.69101 1.05
      vertex 3.54749 9.64749 1.8
      vertex 3.49445 9.69101 1.8
    endloop
  endfacet
  facet normal -0.634317 -0.773073 -0
    outer loop
      vertex 3.54749 9.64749 1.8
      vertex 3.49445 9.69101 1.05
      vertex 3.54749 9.64749 1.05
    endloop
  endfacet
  facet normal 0 -1 0
    outer loop
      vertex 2.75 9.75 1.05
      vertex 3.3 9.75 1.8
      vertex 2.75 9.75 1.8
    endloop
  endfacet
  facet normal 0 -1 -0
    outer loop
      vertex 3.3 9.75 1.8
      vertex 2.75 9.75 1.05
      vertex 3.3 9.75 1.05
    endloop
  endfacet
  facet normal 0 -1 0
    outer loop
      vertex 1.5 9.75 1.05
      vertex 2.05 9.75 1.8
      vertex 1.5 9.75 1.8
    endloop
  endfacet
  facet normal 0 -1 -0
    outer loop
      vertex 2.05 9.75 1.8
      vertex 1.5 9.75 1.05
      vertex 2.05 9.75 1.05
    endloop
  endfacet
  facet normal 0.956931 -0.290315 0
    outer loop
      vertex 1.15672 9.46828 1.8
      vertex 1.17664 9.53394 1.05
      vertex 1.17664 9.53394 1.8
    endloop
  endfacet
  facet normal 0.956931 -0.290315 0
    outer loop
      vertex 1.17664 9.53394 1.05
      vertex 1.15672 9.46828 1.8
      vertex 1.15672 9.46828 1.05
    endloop
  endfacet
  facet normal -0.773073 -0.634317 0
    outer loop
      vertex 3.59101 9.59445 1.05
      vertex 3.54749 9.64749 1.8
      vertex 3.54749 9.64749 1.05
    endloop
  endfacet
  facet normal -0.773073 -0.634317 0
    outer loop
      vertex 3.54749 9.64749 1.8
      vertex 3.59101 9.59445 1.05
      vertex 3.59101 9.59445 1.8
    endloop
  endfacet
  facet normal -0.88188 -0.471473 0
    outer loop
      vertex 3.62336 9.53394 1.05
      vertex 3.59101 9.59445 1.8
      vertex 3.59101 9.59445 1.05
    endloop
  endfacet
  facet normal -0.88188 -0.471473 0
    outer loop
      vertex 3.59101 9.59445 1.8
      vertex 3.62336 9.53394 1.05
      vertex 3.62336 9.53394 1.8
    endloop
  endfacet
  facet normal -1 0 0
    outer loop
      vertex 3.65 5.35 1.05
      vertex 3.65 9.4 1.8
      vertex 3.65 9.4 1.05
    endloop
  endfacet
  facet normal -1 -0 0
    outer loop
      vertex 3.65 9.4 1.8
      vertex 3.65 5.35 1.05
      vertex 3.65 5.35 1.8
    endloop
  endfacet
  facet normal -0.0980894 -0.995178 0
    outer loop
      vertex 3.3 9.75 1.05
      vertex 3.36828 9.74327 1.8
      vertex 3.3 9.75 1.8
    endloop
  endfacet
  facet normal -0.0980894 -0.995178 -0
    outer loop
      vertex 3.36828 9.74327 1.8
      vertex 3.3 9.75 1.05
      vertex 3.36828 9.74327 1.05
    endloop
  endfacet
  facet normal 0.995192 -0.0979451 0
    outer loop
      vertex 1.15 9.4 1.8
      vertex 1.15672 9.46828 1.05
      vertex 1.15672 9.46828 1.8
    endloop
  endfacet
  facet normal 0.995192 -0.0979451 0
    outer loop
      vertex 1.15672 9.46828 1.05
      vertex 1.15 9.4 1.8
      vertex 1.15 9.4 1.05
    endloop
  endfacet
  facet normal -0.956972 -0.290181 0
    outer loop
      vertex 3.64327 9.46828 1.05
      vertex 3.62336 9.53394 1.8
      vertex 3.62336 9.53394 1.05
    endloop
  endfacet
  facet normal -0.956972 -0.290181 0
    outer loop
      vertex 3.62336 9.53394 1.8
      vertex 3.64327 9.46828 1.05
      vertex 3.64327 9.46828 1.8
    endloop
  endfacet
  facet normal -0.995178 -0.0980894 0
    outer loop
      vertex 3.65 9.4 1.05
      vertex 3.64327 9.46828 1.8
      vertex 3.64327 9.46828 1.05
    endloop
  endfacet
  facet normal -0.995178 -0.0980894 0
    outer loop
      vertex 3.64327 9.46828 1.8
      vertex 3.65 9.4 1.05
      vertex 3.65 9.4 1.8
    endloop
  endfacet
  facet normal 0 1 -0
    outer loop
      vertex 3.3 5 1.05
      vertex 2.75 5 1.8
      vertex 3.3 5 1.8
    endloop
  endfacet
  facet normal 0 1 0
    outer loop
      vertex 2.75 5 1.8
      vertex 3.3 5 1.05
      vertex 2.75 5 1.05
    endloop
  endfacet
  facet normal 0 1 -0
    outer loop
      vertex 2.05 5 1.05
      vertex 1.5 5 1.8
      vertex 2.05 5 1.8
    endloop
  endfacet
  facet normal 0 1 0
    outer loop
      vertex 1.5 5 1.8
      vertex 2.05 5 1.05
      vertex 1.5 5 1.05
    endloop
  endfacet
  facet normal -0.634404 0.773002 0
    outer loop
      vertex 3.54749 5.10251 1.05
      vertex 3.49445 5.05898 1.8
      vertex 3.54749 5.10251 1.8
    endloop
  endfacet
  facet normal -0.634404 0.773002 0
    outer loop
      vertex 3.49445 5.05898 1.8
      vertex 3.54749 5.10251 1.05
      vertex 3.49445 5.05898 1.05
    endloop
  endfacet
  facet normal -0.995178 0.0980894 0
    outer loop
      vertex 3.64327 5.28172 1.05
      vertex 3.65 5.35 1.8
      vertex 3.65 5.35 1.05
    endloop
  endfacet
  facet normal -0.995178 0.0980894 0
    outer loop
      vertex 3.65 5.35 1.8
      vertex 3.64327 5.28172 1.05
      vertex 3.64327 5.28172 1.8
    endloop
  endfacet
  facet normal -0.290181 -0.956972 0
    outer loop
      vertex 3.36828 9.74327 1.05
      vertex 3.43394 9.72336 1.8
      vertex 3.36828 9.74327 1.8
    endloop
  endfacet
  facet normal -0.290181 -0.956972 -0
    outer loop
      vertex 3.43394 9.72336 1.8
      vertex 3.36828 9.74327 1.05
      vertex 3.43394 9.72336 1.05
    endloop
  endfacet
  facet normal 0.773073 -0.634317 0
    outer loop
      vertex 1.20899 9.59445 1.8
      vertex 1.25251 9.64749 1.05
      vertex 1.25251 9.64749 1.8
    endloop
  endfacet
  facet normal 0.773073 -0.634317 0
    outer loop
      vertex 1.25251 9.64749 1.05
      vertex 1.20899 9.59445 1.8
      vertex 1.20899 9.59445 1.05
    endloop
  endfacet
  facet normal 0.634317 -0.773073 0
    outer loop
      vertex 1.25251 9.64749 1.05
      vertex 1.30555 9.69101 1.8
      vertex 1.25251 9.64749 1.8
    endloop
  endfacet
  facet normal 0.634317 -0.773073 0
    outer loop
      vertex 1.30555 9.69101 1.8
      vertex 1.25251 9.64749 1.05
      vertex 1.30555 9.69101 1.05
    endloop
  endfacet
  facet normal 0.290315 0.956931 -0
    outer loop
      vertex 1.43172 5.00672 1.05
      vertex 1.36606 5.02664 1.8
      vertex 1.43172 5.00672 1.8
    endloop
  endfacet
  facet normal 0.290315 0.956931 0
    outer loop
      vertex 1.36606 5.02664 1.8
      vertex 1.43172 5.00672 1.05
      vertex 1.36606 5.02664 1.05
    endloop
  endfacet
  facet normal 0.0979451 0.995192 -0
    outer loop
      vertex 1.5 5 1.05
      vertex 1.43172 5.00672 1.8
      vertex 1.5 5 1.8
    endloop
  endfacet
  facet normal 0.0979451 0.995192 0
    outer loop
      vertex 1.43172 5.00672 1.8
      vertex 1.5 5 1.05
      vertex 1.43172 5.00672 1.05
    endloop
  endfacet
  facet normal -0.47136 0.881941 0
    outer loop
      vertex 3.49445 5.05898 1.05
      vertex 3.43394 5.02664 1.8
      vertex 3.49445 5.05898 1.8
    endloop
  endfacet
  facet normal -0.47136 0.881941 0
    outer loop
      vertex 3.43394 5.02664 1.8
      vertex 3.49445 5.05898 1.05
      vertex 3.43394 5.02664 1.05
    endloop
  endfacet
  facet normal -0.290315 0.956931 0
    outer loop
      vertex 3.43394 5.02664 1.05
      vertex 3.36828 5.00672 1.8
      vertex 3.43394 5.02664 1.8
    endloop
  endfacet
  facet normal -0.290315 0.956931 0
    outer loop
      vertex 3.36828 5.00672 1.8
      vertex 3.43394 5.02664 1.05
      vertex 3.36828 5.00672 1.05
    endloop
  endfacet
  facet normal -0.0979451 0.995192 0
    outer loop
      vertex 3.36828 5.00672 1.05
      vertex 3.3 5 1.8
      vertex 3.36828 5.00672 1.8
    endloop
  endfacet
  facet normal -0.0979451 0.995192 0
    outer loop
      vertex 3.3 5 1.8
      vertex 3.36828 5.00672 1.05
      vertex 3.3 5 1.05
    endloop
  endfacet
  facet normal 0.290181 -0.956972 0
    outer loop
      vertex 1.36606 9.72336 1.05
      vertex 1.43172 9.74327 1.8
      vertex 1.36606 9.72336 1.8
    endloop
  endfacet
  facet normal 0.290181 -0.956972 0
    outer loop
      vertex 1.43172 9.74327 1.8
      vertex 1.36606 9.72336 1.05
      vertex 1.43172 9.74327 1.05
    endloop
  endfacet
  facet normal 0.471473 -0.88188 0
    outer loop
      vertex 1.30555 9.69101 1.05
      vertex 1.36606 9.72336 1.8
      vertex 1.30555 9.69101 1.8
    endloop
  endfacet
  facet normal 0.471473 -0.88188 0
    outer loop
      vertex 1.36606 9.72336 1.8
      vertex 1.30555 9.69101 1.05
      vertex 1.36606 9.72336 1.05
    endloop
  endfacet
  facet normal -0.88188 0.471473 0
    outer loop
      vertex 3.59101 5.15555 1.05
      vertex 3.62336 5.21606 1.8
      vertex 3.62336 5.21606 1.05
    endloop
  endfacet
  facet normal -0.88188 0.471473 0
    outer loop
      vertex 3.62336 5.21606 1.8
      vertex 3.59101 5.15555 1.05
      vertex 3.59101 5.15555 1.8
    endloop
  endfacet
  facet normal -0.773073 0.634317 0
    outer loop
      vertex 3.54749 5.10251 1.05
      vertex 3.59101 5.15555 1.8
      vertex 3.59101 5.15555 1.05
    endloop
  endfacet
  facet normal -0.773073 0.634317 0
    outer loop
      vertex 3.59101 5.15555 1.8
      vertex 3.54749 5.10251 1.05
      vertex 3.54749 5.10251 1.8
    endloop
  endfacet
  facet normal -0.471473 -0.88188 0
    outer loop
      vertex 3.43394 9.72336 1.05
      vertex 3.49445 9.69101 1.8
      vertex 3.43394 9.72336 1.8
    endloop
  endfacet
  facet normal -0.471473 -0.88188 -0
    outer loop
      vertex 3.49445 9.69101 1.8
      vertex 3.43394 9.72336 1.05
      vertex 3.49445 9.69101 1.05
    endloop
  endfacet
  facet normal 0 -1 0
    outer loop
      vertex 5.6 10.2 1.05
      vertex 9.7 10.2 1.8
      vertex 5.6 10.2 1.8
    endloop
  endfacet
  facet normal 0 -1 -0
    outer loop
      vertex 9.7 10.2 1.8
      vertex 5.6 10.2 1.05
      vertex 9.7 10.2 1.05
    endloop
  endfacet
  facet normal -0.634404 0.773002 0
    outer loop
      vertex 9.94749 4.40251 1.05
      vertex 9.89445 4.35898 1.8
      vertex 9.94749 4.40251 1.8
    endloop
  endfacet
  facet normal -0.634404 0.773002 0
    outer loop
      vertex 9.89445 4.35898 1.8
      vertex 9.94749 4.40251 1.05
      vertex 9.89445 4.35898 1.05
    endloop
  endfacet
  facet normal -0.0976563 -0.99522 0
    outer loop
      vertex 9.7 10.2 1.05
      vertex 9.76828 10.1933 1.8
      vertex 9.7 10.2 1.8
    endloop
  endfacet
  facet normal -0.0976563 -0.99522 -0
    outer loop
      vertex 9.76828 10.1933 1.8
      vertex 9.7 10.2 1.05
      vertex 9.76828 10.1933 1.05
    endloop
  endfacet
  facet normal -0.472039 -0.881577 0
    outer loop
      vertex 9.83394 10.1734 1.05
      vertex 9.89445 10.141 1.8
      vertex 9.83394 10.1734 1.8
    endloop
  endfacet
  facet normal -0.472039 -0.881577 -0
    outer loop
      vertex 9.89445 10.141 1.8
      vertex 9.83394 10.1734 1.05
      vertex 9.89445 10.141 1.05
    endloop
  endfacet
  facet normal -0.290048 -0.957012 0
    outer loop
      vertex 9.76828 10.1933 1.05
      vertex 9.83394 10.1734 1.8
      vertex 9.76828 10.1933 1.8
    endloop
  endfacet
  facet normal -0.290048 -0.957012 -0
    outer loop
      vertex 9.83394 10.1734 1.8
      vertex 9.76828 10.1933 1.05
      vertex 9.83394 10.1734 1.05
    endloop
  endfacet
  facet normal -1 0 0
    outer loop
      vertex 10.05 4.65 1.05
      vertex 10.05 9.85 1.8
      vertex 10.05 9.85 1.05
    endloop
  endfacet
  facet normal -1 -0 0
    outer loop
      vertex 10.05 9.85 1.8
      vertex 10.05 4.65 1.05
      vertex 10.05 4.65 1.8
    endloop
  endfacet
  facet normal -0.881638 0.471926 0
    outer loop
      vertex 9.99101 4.45555 1.05
      vertex 10.0234 4.51606 1.8
      vertex 10.0234 4.51606 1.05
    endloop
  endfacet
  facet normal -0.881638 0.471926 0
    outer loop
      vertex 10.0234 4.51606 1.8
      vertex 9.99101 4.45555 1.05
      vertex 9.99101 4.45555 1.8
    endloop
  endfacet
  facet normal -0.99522 0.0976563 0
    outer loop
      vertex 10.0433 4.58172 1.05
      vertex 10.05 4.65 1.8
      vertex 10.05 4.65 1.05
    endloop
  endfacet
  facet normal -0.99522 0.0976563 0
    outer loop
      vertex 10.05 4.65 1.8
      vertex 10.0433 4.58172 1.05
      vertex 10.0433 4.58172 1.8
    endloop
  endfacet
  facet normal -0.0979451 0.995192 0
    outer loop
      vertex 9.76828 4.30672 1.05
      vertex 9.7 4.3 1.8
      vertex 9.76828 4.30672 1.8
    endloop
  endfacet
  facet normal -0.0979451 0.995192 0
    outer loop
      vertex 9.7 4.3 1.8
      vertex 9.76828 4.30672 1.05
      vertex 9.7 4.3 1.05
    endloop
  endfacet
  facet normal -0.47136 0.881941 0
    outer loop
      vertex 9.89445 4.35898 1.05
      vertex 9.83394 4.32664 1.8
      vertex 9.89445 4.35898 1.8
    endloop
  endfacet
  facet normal -0.47136 0.881941 0
    outer loop
      vertex 9.83394 4.32664 1.8
      vertex 9.89445 4.35898 1.05
      vertex 9.83394 4.32664 1.05
    endloop
  endfacet
  facet normal 0 1 -0
    outer loop
      vertex 9.7 4.3 1.05
      vertex 5.6 4.3 1.8
      vertex 9.7 4.3 1.8
    endloop
  endfacet
  facet normal 0 1 0
    outer loop
      vertex 5.6 4.3 1.8
      vertex 9.7 4.3 1.05
      vertex 5.6 4.3 1.05
    endloop
  endfacet
  facet normal -0.634142 -0.773216 0
    outer loop
      vertex 9.89445 10.141 1.05
      vertex 9.94749 10.0975 1.8
      vertex 9.89445 10.141 1.8
    endloop
  endfacet
  facet normal -0.634142 -0.773216 -0
    outer loop
      vertex 9.94749 10.0975 1.8
      vertex 9.89445 10.141 1.05
      vertex 9.94749 10.0975 1.05
    endloop
  endfacet
  facet normal -0.957012 -0.290048 0
    outer loop
      vertex 10.0433 9.91828 1.05
      vertex 10.0234 9.98394 1.8
      vertex 10.0234 9.98394 1.05
    endloop
  endfacet
  facet normal -0.957012 -0.290048 0
    outer loop
      vertex 10.0234 9.98394 1.8
      vertex 10.0433 9.91828 1.05
      vertex 10.0433 9.91828 1.8
    endloop
  endfacet
  facet normal -0.99522 -0.0976563 0
    outer loop
      vertex 10.05 9.85 1.05
      vertex 10.0433 9.91828 1.8
      vertex 10.0433 9.91828 1.05
    endloop
  endfacet
  facet normal -0.99522 -0.0976563 0
    outer loop
      vertex 10.0433 9.91828 1.8
      vertex 10.05 9.85 1.05
      vertex 10.05 9.85 1.8
    endloop
  endfacet
  facet normal -0.773425 -0.633888 0
    outer loop
      vertex 9.99101 10.0444 1.05
      vertex 9.94749 10.0975 1.8
      vertex 9.94749 10.0975 1.05
    endloop
  endfacet
  facet normal -0.773425 -0.633888 0
    outer loop
      vertex 9.94749 10.0975 1.8
      vertex 9.99101 10.0444 1.05
      vertex 9.99101 10.0444 1.8
    endloop
  endfacet
  facet normal -0.881476 -0.47223 0
    outer loop
      vertex 10.0234 9.98394 1.05
      vertex 9.99101 10.0444 1.8
      vertex 9.99101 10.0444 1.05
    endloop
  endfacet
  facet normal -0.881476 -0.47223 0
    outer loop
      vertex 9.99101 10.0444 1.8
      vertex 10.0234 9.98394 1.05
      vertex 10.0234 9.98394 1.8
    endloop
  endfacet
  facet normal -0.957012 0.290048 0
    outer loop
      vertex 10.0234 4.51606 1.05
      vertex 10.0433 4.58172 1.8
      vertex 10.0433 4.58172 1.05
    endloop
  endfacet
  facet normal -0.957012 0.290048 0
    outer loop
      vertex 10.0433 4.58172 1.8
      vertex 10.0234 4.51606 1.05
      vertex 10.0234 4.51606 1.8
    endloop
  endfacet
  facet normal -0.773073 0.634317 0
    outer loop
      vertex 9.94749 4.40251 1.05
      vertex 9.99101 4.45555 1.8
      vertex 9.99101 4.45555 1.05
    endloop
  endfacet
  facet normal -0.773073 0.634317 0
    outer loop
      vertex 9.99101 4.45555 1.8
      vertex 9.94749 4.40251 1.05
      vertex 9.94749 4.40251 1.8
    endloop
  endfacet
  facet normal -0.290315 0.956931 0
    outer loop
      vertex 9.83394 4.32664 1.05
      vertex 9.76828 4.30672 1.8
      vertex 9.83394 4.32664 1.8
    endloop
  endfacet
  facet normal -0.290315 0.956931 0
    outer loop
      vertex 9.76828 4.30672 1.8
      vertex 9.83394 4.32664 1.05
      vertex 9.76828 4.30672 1.05
    endloop
  endfacet
endsolid OpenSCAD_Model
